<svg id="svg" version="1.1" xmlns="http://www.w3.org/2000/svg" xmlns:xlink="http://www.w3.org/1999/xlink" width="400" height="344.6945337620579" viewBox="0, 0, 400,344.6945337620579"><g id="svgg"><path id="path0" d="M0.000 172.414 L 0.000 344.828 200.000 344.828 L 400.000 344.828 400.000 172.414 L 400.000 0.000 200.000 0.000 L 0.000 0.000 0.000 172.414 M181.724 51.207 C 185.612 51.324,189.414 51.554,190.172 51.718 C 190.931 51.883,193.414 52.271,195.690 52.580 C 200.230 53.198,205.113 54.060,205.529 54.317 C 205.675 54.408,207.012 54.714,208.500 54.999 C 209.989 55.283,211.616 55.819,212.116 56.188 C 212.617 56.558,214.323 57.121,215.909 57.439 C 218.556 57.971,221.717 59.095,228.103 61.777 C 230.881 62.943,230.665 62.828,236.311 66.121 C 238.670 67.496,240.687 68.621,240.795 68.621 C 240.903 68.621,241.428 69.026,241.961 69.521 C 242.495 70.016,244.176 71.219,245.697 72.194 C 251.859 76.141,261.178 85.056,265.618 91.251 C 267.096 93.313,269.304 96.319,270.525 97.931 C 271.746 99.543,272.936 101.250,273.170 101.724 C 273.405 102.198,273.980 103.207,274.450 103.966 C 276.114 106.655,279.756 114.009,280.939 117.069 C 281.599 118.776,282.346 120.560,282.598 121.034 C 282.851 121.509,283.443 122.780,283.915 123.860 C 284.663 125.574,284.999 126.849,286.032 131.897 C 286.149 132.466,286.400 133.629,286.591 134.483 C 286.781 135.336,287.062 136.888,287.215 137.931 C 287.367 138.974,287.745 140.603,288.053 141.552 C 288.852 144.010,289.259 146.562,289.482 150.517 C 289.588 152.414,289.889 156.138,290.151 158.793 C 290.412 161.448,290.660 167.966,290.702 173.276 C 290.744 178.586,290.797 183.397,290.820 183.966 C 290.894 185.786,289.959 198.321,289.470 202.069 C 288.623 208.566,287.932 212.802,287.622 213.390 C 287.455 213.706,287.136 214.897,286.912 216.034 C 286.688 217.172,286.192 219.190,285.809 220.517 C 285.426 221.845,284.801 224.017,284.419 225.345 C 283.424 228.811,283.121 229.532,282.382 230.201 C 282.020 230.529,281.724 231.071,281.724 231.406 C 281.724 231.974,280.104 235.557,276.280 243.448 C 274.436 247.252,272.818 249.885,271.724 250.862 C 270.913 251.585,268.707 254.671,267.241 257.132 C 265.079 260.763,255.664 270.128,250.517 273.769 C 249.190 274.708,247.095 276.310,245.862 277.329 C 244.629 278.349,242.457 279.774,241.034 280.497 C 239.612 281.219,238.283 281.941,238.082 282.101 C 237.287 282.730,224.474 288.966,223.976 288.966 C 223.684 288.966,222.631 289.365,221.636 289.853 C 219.886 290.711,216.598 291.826,214.828 292.162 C 214.353 292.252,212.103 292.821,209.828 293.428 C 207.552 294.034,204.914 294.603,203.966 294.692 C 203.017 294.782,201.388 295.005,200.345 295.188 C 199.302 295.372,196.509 295.755,194.138 296.039 C 191.767 296.324,189.396 296.732,188.868 296.946 C 188.341 297.159,187.829 297.254,187.730 297.156 C 187.632 297.057,186.978 297.120,186.276 297.296 C 180.905 298.638,150.035 298.493,144.106 297.097 C 142.855 296.803,139.984 296.399,137.726 296.200 C 135.468 296.000,132.767 295.708,131.724 295.550 C 127.077 294.845,121.153 293.696,120.575 293.387 C 120.228 293.201,118.133 292.528,115.920 291.890 C 110.852 290.430,105.969 288.585,103.627 287.245 C 102.631 286.675,101.164 285.979,100.368 285.698 C 99.571 285.417,98.475 284.870,97.931 284.483 C 97.387 284.095,96.347 283.568,95.619 283.312 C 94.270 282.836,93.232 282.217,89.371 279.588 C 86.780 277.823,81.558 273.837,80.350 272.702 C 79.879 272.259,79.025 271.607,78.453 271.254 C 75.631 269.509,63.448 256.637,63.448 255.399 C 63.448 255.176,62.364 253.636,61.040 251.976 C 59.715 250.316,58.317 248.378,57.932 247.669 C 57.548 246.960,56.809 245.650,56.289 244.758 C 53.658 240.243,52.759 238.556,52.759 238.138 C 52.759 237.886,52.473 237.309,52.124 236.857 C 51.398 235.916,49.655 232.189,49.655 231.578 C 49.655 231.353,49.276 230.402,48.814 229.464 C 48.351 228.526,47.745 227.138,47.467 226.379 C 45.550 221.143,45.149 219.873,44.634 217.414 C 44.316 215.897,44.009 214.034,43.952 213.276 C 43.895 212.517,43.697 211.504,43.513 211.024 C 43.329 210.545,42.993 208.372,42.767 206.197 C 42.541 204.021,42.065 201.233,41.710 200.000 C 39.592 192.655,39.524 158.536,41.602 145.517 C 42.071 142.578,42.527 139.611,42.614 138.926 C 42.702 138.240,43.011 136.844,43.301 135.822 C 44.246 132.501,45.109 128.830,45.361 127.069 C 45.496 126.121,46.207 123.871,46.941 122.069 C 47.675 120.267,48.276 118.681,48.276 118.544 C 48.276 118.269,49.643 115.131,50.760 112.845 C 51.153 112.039,51.597 111.379,51.745 111.379 C 51.894 111.379,52.203 110.797,52.431 110.086 C 52.967 108.420,55.267 104.014,56.324 102.627 C 56.776 102.036,57.633 100.621,58.230 99.483 C 59.767 96.554,59.892 96.375,62.672 93.149 C 64.047 91.553,65.172 90.074,65.172 89.861 C 65.172 89.143,77.812 76.692,79.504 75.743 C 79.896 75.524,80.749 74.933,81.401 74.430 C 82.053 73.927,83.362 73.087,84.310 72.564 C 85.259 72.040,86.810 71.050,87.759 70.364 C 89.730 68.937,91.228 67.907,92.031 67.426 C 92.336 67.243,93.207 66.682,93.966 66.178 C 95.933 64.872,99.097 63.330,101.897 62.313 C 103.224 61.831,105.552 60.856,107.069 60.148 C 108.586 59.439,110.293 58.741,110.862 58.597 C 112.440 58.196,117.628 56.329,118.793 55.742 C 120.189 55.039,130.380 53.224,134.655 52.917 C 136.552 52.781,138.484 52.526,138.950 52.351 C 140.458 51.783,144.518 51.384,151.034 51.161 C 154.543 51.041,157.457 50.907,157.510 50.863 C 157.660 50.740,173.836 50.969,181.724 51.207 " stroke="none" fill="#fcfbfb" fill-rule="evenodd"></path><path id="path1" d="M153.448 53.523 C 152.216 53.664,149.453 53.859,147.308 53.957 C 145.164 54.054,143.096 54.302,142.712 54.507 C 142.329 54.713,141.785 54.793,141.505 54.685 C 141.224 54.577,140.287 54.647,139.422 54.841 C 138.557 55.035,136.155 55.209,134.084 55.227 C 126.907 55.292,120.311 56.405,118.456 57.863 C 117.973 58.243,116.765 58.742,115.772 58.971 C 114.778 59.200,113.620 59.605,113.197 59.869 C 112.422 60.355,109.628 61.477,105.520 62.950 C 104.289 63.392,102.765 64.166,102.134 64.669 C 101.496 65.178,100.715 65.514,100.375 65.425 C 100.038 65.337,99.168 65.555,98.441 65.908 C 97.713 66.262,96.974 66.552,96.798 66.552 C 96.622 66.552,95.900 67.010,95.193 67.570 C 94.486 68.130,93.280 68.944,92.512 69.380 C 90.209 70.688,88.121 72.140,87.826 72.639 C 87.674 72.897,86.965 73.406,86.252 73.770 C 85.538 74.134,84.747 74.682,84.493 74.987 C 84.240 75.293,83.079 76.076,81.914 76.727 C 80.748 77.379,78.715 78.964,77.396 80.249 C 76.076 81.535,74.415 82.974,73.705 83.448 C 72.994 83.922,72.332 84.560,72.233 84.866 C 72.134 85.171,71.552 85.891,70.940 86.465 C 68.852 88.425,66.206 91.395,65.376 92.710 C 64.920 93.432,64.049 94.442,63.439 94.955 C 61.967 96.193,60.767 98.008,59.884 100.333 C 59.118 102.349,58.245 103.805,56.998 105.143 C 56.582 105.590,56.144 106.400,56.024 106.943 C 55.905 107.486,55.683 107.931,55.530 107.931 C 55.378 107.931,54.833 108.823,54.319 109.914 C 53.806 111.004,53.034 112.362,52.605 112.931 C 52.175 113.500,51.584 114.741,51.290 115.690 C 50.996 116.638,50.431 118.265,50.033 119.305 C 49.636 120.346,49.304 121.587,49.295 122.064 C 49.287 122.541,49.043 123.552,48.752 124.310 C 48.462 125.069,48.074 126.388,47.889 127.241 C 47.705 128.095,47.320 129.220,47.033 129.742 C 46.746 130.265,46.419 131.816,46.306 133.191 C 46.192 134.565,45.908 136.000,45.675 136.379 C 45.441 136.759,45.061 138.155,44.830 139.483 C 44.600 140.810,44.272 142.253,44.102 142.689 C 43.932 143.124,43.793 144.239,43.793 145.166 C 43.793 146.093,43.621 147.288,43.411 147.822 C 43.200 148.356,42.967 149.802,42.892 151.034 C 42.818 152.267,42.601 154.672,42.412 156.379 C 42.112 159.074,41.632 167.477,41.663 169.483 C 41.669 169.862,41.685 174.129,41.699 178.966 C 41.726 188.191,42.414 196.191,43.338 198.027 C 43.604 198.554,43.906 200.028,44.009 201.303 C 44.112 202.578,44.397 204.164,44.642 204.828 C 44.886 205.491,45.197 207.392,45.333 209.050 C 45.468 210.709,45.720 212.154,45.893 212.260 C 46.066 212.367,46.207 213.009,46.207 213.687 C 46.207 214.365,46.355 215.481,46.536 216.167 C 46.718 216.853,47.121 218.532,47.432 219.899 C 47.744 221.267,48.206 222.558,48.460 222.768 C 48.714 222.979,49.025 223.645,49.152 224.248 C 49.280 224.851,49.759 226.101,50.217 227.026 C 50.675 227.951,51.187 229.681,51.356 230.870 C 51.524 232.060,51.853 233.398,52.086 233.844 C 52.819 235.246,55.888 240.333,58.194 243.969 C 58.433 244.346,58.936 245.276,59.311 246.034 C 60.866 249.182,64.845 254.828,65.509 254.828 C 65.633 254.828,66.094 255.466,66.532 256.246 C 67.214 257.458,69.214 259.693,74.326 264.954 C 77.164 267.875,81.675 271.379,82.597 271.379 C 83.044 271.379,84.800 273.730,84.846 274.390 C 84.876 274.817,88.190 276.906,91.724 278.725 C 93.526 279.652,95.473 280.861,96.051 281.412 C 96.629 281.963,97.395 282.414,97.752 282.414 C 98.869 282.414,101.745 283.813,104.689 285.790 C 105.619 286.413,106.767 287.004,107.241 287.103 C 107.716 287.201,108.896 287.513,109.866 287.796 C 110.835 288.078,111.999 288.353,112.452 288.405 C 113.200 288.491,114.072 288.786,116.034 289.616 C 117.268 290.138,119.786 290.744,121.724 290.986 C 122.767 291.116,123.839 291.360,124.106 291.527 C 124.373 291.695,125.117 291.812,125.761 291.788 C 126.404 291.764,127.660 291.997,128.551 292.307 C 129.443 292.617,130.546 292.845,131.002 292.814 C 131.480 292.782,132.028 293.040,132.298 293.424 C 132.688 293.981,133.289 294.114,135.951 294.229 C 139.127 294.368,142.592 294.752,149.138 295.692 C 151.070 295.969,155.467 296.201,159.138 296.220 C 162.741 296.238,167.862 296.272,170.517 296.294 C 176.650 296.348,184.172 295.694,187.884 294.786 C 189.668 294.349,191.969 294.073,193.918 294.063 C 196.423 294.049,197.352 293.897,198.448 293.324 C 199.207 292.927,200.371 292.582,201.034 292.558 C 203.514 292.468,208.486 291.665,209.535 291.186 C 210.133 290.913,210.836 290.690,211.099 290.690 C 211.361 290.690,212.459 290.379,213.538 290.000 C 214.617 289.621,216.166 289.310,216.979 289.310 C 217.793 289.310,219.027 289.006,219.722 288.633 C 220.417 288.261,222.044 287.620,223.338 287.209 C 224.631 286.798,225.922 286.263,226.207 286.022 C 226.989 285.357,231.586 283.189,232.760 282.931 C 233.329 282.806,234.429 282.173,235.205 281.524 C 235.982 280.876,236.734 280.345,236.876 280.345 C 237.019 280.345,237.490 280.038,237.923 279.662 C 238.355 279.287,239.271 278.876,239.958 278.748 C 241.656 278.432,244.914 276.297,245.910 274.850 C 246.982 273.290,248.242 272.095,249.330 271.604 C 250.447 271.101,251.750 270.096,255.205 267.069 C 256.720 265.741,258.390 264.347,258.914 263.971 C 259.835 263.311,261.217 261.645,262.522 259.623 C 262.866 259.089,263.448 258.558,263.815 258.441 C 264.182 258.325,264.483 258.037,264.483 257.801 C 264.483 257.565,265.169 256.568,266.008 255.585 C 266.847 254.603,267.932 252.956,268.419 251.926 C 268.906 250.897,269.694 249.748,270.170 249.374 C 270.645 249.000,271.034 248.601,271.034 248.488 C 271.034 248.375,271.578 247.570,272.241 246.701 C 272.905 245.831,273.448 244.781,273.448 244.367 C 273.448 243.953,273.737 243.434,274.089 243.214 C 274.469 242.977,274.828 242.208,274.968 241.329 C 275.098 240.513,275.404 239.609,275.648 239.319 C 275.891 239.030,276.359 238.063,276.688 237.171 C 277.040 236.218,277.561 235.462,277.953 235.338 C 278.382 235.202,278.621 234.813,278.621 234.250 C 278.621 233.485,280.133 229.755,281.042 228.276 C 282.588 225.761,284.458 218.309,284.476 214.591 C 284.484 212.971,284.970 211.449,285.660 210.890 C 285.913 210.685,286.307 209.276,286.536 207.759 C 286.765 206.241,287.174 204.332,287.444 203.515 C 287.949 201.991,287.969 191.992,287.468 191.491 C 287.343 191.366,287.454 191.018,287.716 190.718 C 288.594 189.712,289.264 173.932,288.544 171.207 C 288.108 169.554,287.938 165.855,288.202 163.744 C 288.398 162.180,288.349 160.768,288.049 159.296 C 287.807 158.110,287.537 155.339,287.450 153.139 C 287.363 150.938,287.261 149.138,287.223 149.138 C 287.185 149.138,287.103 148.828,287.042 148.448 C 286.454 144.816,286.222 143.792,285.735 142.683 C 285.426 141.978,285.172 140.940,285.172 140.376 C 285.172 139.812,285.018 139.256,284.829 139.139 C 284.641 139.022,284.502 138.431,284.521 137.826 C 284.541 137.220,284.388 136.103,284.183 135.345 C 283.978 134.586,283.806 133.267,283.802 132.414 C 283.787 129.183,282.175 123.384,280.640 121.041 C 280.084 120.192,279.537 119.106,279.424 118.628 C 279.312 118.150,278.942 117.448,278.603 117.069 C 278.264 116.690,277.881 115.808,277.752 115.109 C 277.623 114.410,277.245 113.591,276.912 113.290 C 276.537 112.951,276.366 112.427,276.463 111.918 C 276.579 111.311,276.386 110.942,275.724 110.508 C 275.231 110.185,274.828 109.657,274.828 109.335 C 274.828 108.445,271.874 102.848,270.696 101.506 C 270.123 100.854,269.655 100.151,269.655 99.944 C 269.655 99.513,268.030 97.473,266.101 95.483 C 265.379 94.738,264.576 93.626,264.317 93.012 C 264.057 92.399,263.213 91.283,262.440 90.533 C 261.667 89.784,261.034 88.996,261.034 88.783 C 261.034 88.570,260.647 88.032,260.172 87.586 C 259.698 87.141,259.310 86.599,259.310 86.381 C 259.310 85.896,258.196 84.910,255.795 83.273 C 254.789 82.586,253.578 81.465,253.103 80.781 C 252.629 80.097,251.846 79.292,251.363 78.993 C 248.605 77.284,247.931 76.798,247.931 76.518 C 247.931 76.347,247.709 76.207,247.437 76.207 C 247.165 76.207,246.852 75.920,246.741 75.570 C 246.629 75.219,246.154 74.757,245.684 74.543 C 245.214 74.329,244.155 73.532,243.332 72.773 C 241.873 71.429,237.543 68.985,236.597 68.972 C 236.338 68.968,235.492 68.332,234.718 67.557 C 233.390 66.230,233.225 66.162,231.827 66.372 C 230.222 66.612,230.036 66.430,230.909 65.465 C 231.434 64.886,231.428 64.828,230.823 64.640 C 230.465 64.530,229.707 64.233,229.138 63.981 C 228.569 63.729,227.172 63.339,226.034 63.114 C 223.715 62.656,220.418 61.525,219.724 60.948 C 219.112 60.441,215.875 59.336,214.958 59.322 C 214.093 59.308,211.154 58.058,210.856 57.576 C 210.742 57.392,210.340 57.241,209.963 57.241 C 209.586 57.241,208.625 56.917,207.828 56.521 C 206.802 56.011,205.222 55.705,202.414 55.471 C 200.233 55.289,197.207 54.986,195.690 54.798 C 187.102 53.731,184.773 53.587,178.621 53.743 C 177.198 53.779,174.716 53.766,173.103 53.715 C 171.491 53.663,169.594 53.755,168.887 53.919 C 168.180 54.083,167.327 54.104,166.991 53.964 C 165.613 53.393,157.027 53.113,153.448 53.523 M135.971 70.557 C 135.811 70.975,135.706 70.995,135.492 70.649 C 135.169 70.126,135.431 69.561,135.871 69.833 C 136.039 69.937,136.084 70.263,135.971 70.557 M100.112 76.001 C 100.306 76.508,100.084 76.897,99.598 76.897 C 99.440 76.897,99.310 76.586,99.310 76.207 C 99.310 75.416,99.836 75.281,100.112 76.001 M96.552 88.276 C 96.552 88.466,96.319 88.621,96.034 88.621 C 95.750 88.621,95.517 88.466,95.517 88.276 C 95.517 88.086,95.750 87.931,96.034 87.931 C 96.319 87.931,96.552 88.086,96.552 88.276 M168.276 99.503 C 168.276 99.776,168.043 100.000,167.759 100.000 C 167.179 100.000,167.155 99.937,167.450 99.168 C 167.692 98.537,168.276 98.774,168.276 99.503 M123.448 99.848 C 123.448 100.417,122.903 100.513,122.586 100.000 C 122.305 99.545,122.717 98.899,123.127 99.153 C 123.304 99.262,123.448 99.575,123.448 99.848 M103.793 99.828 C 103.793 100.112,103.638 100.345,103.448 100.345 C 103.259 100.345,103.103 100.112,103.103 99.828 C 103.103 99.543,103.259 99.310,103.448 99.310 C 103.638 99.310,103.793 99.543,103.793 99.828 M112.759 102.434 C 112.759 102.613,112.526 102.759,112.241 102.759 C 111.708 102.759,111.556 102.352,111.945 101.963 C 112.220 101.688,112.759 101.999,112.759 102.434 M132.105 102.516 C 131.662 102.959,131.213 102.616,131.541 102.086 C 131.668 101.881,131.930 101.811,132.123 101.930 C 132.358 102.075,132.352 102.268,132.105 102.516 M235.297 112.931 C 235.651 113.854,234.908 115.857,234.469 115.163 C 234.097 114.573,234.032 112.979,234.368 112.644 C 234.740 112.271,235.085 112.378,235.297 112.931 M154.483 113.578 C 154.483 113.840,154.250 114.247,153.966 114.483 C 153.528 114.846,153.448 114.772,153.448 114.008 C 153.448 113.434,153.637 113.103,153.966 113.103 C 154.250 113.103,154.483 113.317,154.483 113.578 M184.138 113.793 C 184.138 113.983,183.914 114.138,183.641 114.138 C 183.368 114.138,183.048 113.983,182.931 113.793 C 182.814 113.603,183.037 113.448,183.428 113.448 C 183.818 113.448,184.138 113.603,184.138 113.793 M117.705 122.849 C 118.556 123.472,117.784 124.341,116.121 124.632 C 115.083 124.814,114.828 124.753,114.828 124.321 C 114.828 122.736,116.430 121.917,117.705 122.849 M227.241 124.158 C 227.241 124.549,227.086 124.772,226.897 124.655 C 226.707 124.538,226.552 124.218,226.552 123.945 C 226.552 123.672,226.707 123.448,226.897 123.448 C 227.086 123.448,227.241 123.768,227.241 124.158 M61.415 126.999 C 60.973 127.441,60.524 127.099,60.851 126.569 C 60.978 126.364,61.240 126.293,61.433 126.413 C 61.669 126.558,61.663 126.751,61.415 126.999 M146.207 129.138 C 146.207 129.425,145.900 129.655,145.517 129.655 C 144.754 129.655,144.583 129.122,145.259 128.849 C 146.009 128.546,146.207 128.607,146.207 129.138 M180.000 129.149 C 180.000 129.439,179.728 129.777,179.397 129.899 C 179.065 130.022,178.714 130.238,178.617 130.379 C 178.156 131.051,176.482 131.133,176.616 130.477 C 176.713 130.000,176.998 129.854,177.685 129.927 C 178.429 130.006,178.621 129.882,178.621 129.323 C 178.621 128.851,178.846 128.621,179.310 128.621 C 179.700 128.621,180.000 128.851,180.000 129.149 M188.527 129.547 C 188.594 129.748,188.332 129.995,187.945 130.096 C 187.557 130.198,187.327 130.140,187.434 129.968 C 187.540 129.796,187.424 129.653,187.176 129.650 C 186.848 129.646,186.866 129.553,187.241 129.311 C 187.837 128.926,188.352 129.020,188.527 129.547 M135.998 132.902 C 135.827 133.348,135.697 133.394,135.501 133.077 C 135.152 132.513,135.510 131.579,135.919 131.988 C 136.090 132.159,136.125 132.570,135.998 132.902 M186.665 133.276 C 186.632 133.466,186.365 133.772,186.071 133.958 C 185.432 134.360,184.618 133.722,184.994 133.114 C 185.286 132.641,186.750 132.783,186.665 133.276 M98.621 134.718 C 98.621 135.156,98.525 135.177,98.107 134.831 C 97.825 134.596,97.680 134.264,97.786 134.093 C 98.058 133.653,98.621 134.074,98.621 134.718 M169.954 134.951 L 170.718 135.764 169.928 136.265 C 169.407 136.596,168.844 136.676,168.276 136.499 C 167.802 136.353,166.973 136.143,166.435 136.033 C 165.605 135.864,165.522 135.754,165.892 135.308 C 166.156 134.991,166.629 134.859,167.090 134.974 C 167.547 135.089,168.023 134.960,168.279 134.652 C 168.851 133.962,169.059 133.999,169.954 134.951 M196.363 136.262 C 197.670 136.858,197.429 137.241,195.747 137.241 C 193.988 137.241,193.576 136.965,194.402 136.338 C 195.146 135.773,195.278 135.768,196.363 136.262 M136.897 136.917 C 137.191 137.078,135.057 137.246,131.948 137.307 C 126.794 137.408,124.653 137.187,126.570 136.753 C 128.917 136.220,135.827 136.330,136.897 136.917 M193.103 136.897 C 193.103 137.086,192.793 137.241,192.414 137.241 C 192.034 137.241,191.724 137.086,191.724 136.897 C 191.724 136.707,192.034 136.552,192.414 136.552 C 192.793 136.552,193.103 136.707,193.103 136.897 M199.828 136.897 C 199.710 137.086,199.158 137.241,198.600 137.241 C 198.043 137.241,197.586 137.086,197.586 136.897 C 197.586 136.707,198.138 136.552,198.813 136.552 C 199.544 136.552,199.954 136.691,199.828 136.897 M202.931 136.897 C 203.048 137.086,202.815 137.241,202.414 137.241 C 202.012 137.241,201.779 137.086,201.897 136.897 C 202.014 136.707,202.247 136.552,202.414 136.552 C 202.581 136.552,202.814 136.707,202.931 136.897 M104.250 138.070 C 104.504 138.731,104.194 138.966,103.066 138.966 C 101.889 138.966,101.499 138.441,102.320 137.963 C 103.187 137.458,104.033 137.505,104.250 138.070 M118.060 137.861 C 118.392 138.398,117.649 139.167,117.217 138.734 C 116.998 138.515,116.923 138.167,117.050 137.961 C 117.323 137.520,117.819 137.471,118.060 137.861 M169.441 138.707 C 169.631 139.500,169.556 139.655,168.983 139.655 C 168.534 139.655,168.362 139.487,168.484 139.168 C 168.595 138.880,168.414 138.620,168.043 138.531 C 167.507 138.403,167.541 138.328,168.276 138.024 C 168.750 137.827,169.155 137.687,169.176 137.713 C 169.196 137.738,169.316 138.185,169.441 138.707 M124.534 138.448 C 124.534 138.628,124.368 138.831,124.164 138.899 C 123.960 138.967,123.793 138.764,123.793 138.448 C 123.793 138.132,123.960 137.929,124.164 137.997 C 124.368 138.065,124.534 138.268,124.534 138.448 M202.931 139.478 C 207.238 141.960,209.930 145.614,210.723 150.055 C 211.818 156.183,207.752 163.449,202.454 164.835 C 201.578 165.064,200.366 165.417,199.761 165.619 C 198.496 166.041,193.011 165.147,191.207 164.225 C 182.689 159.870,182.904 144.722,191.552 139.906 C 195.134 137.911,199.901 137.732,202.931 139.478 M137.955 139.887 C 148.509 145.332,147.932 161.531,137.051 165.259 C 133.073 166.621,130.159 166.372,125.089 164.235 C 120.710 162.389,118.233 154.052,120.152 147.617 C 122.369 140.183,131.144 136.374,137.955 139.887 M142.724 140.065 C 142.370 140.727,142.337 140.728,141.610 140.118 C 141.199 139.773,140.801 139.453,140.726 139.408 C 140.651 139.362,140.961 139.185,141.415 139.013 C 142.539 138.588,143.221 139.136,142.724 140.065 M101.727 139.660 C 102.023 140.214,101.984 140.399,101.532 140.573 C 100.958 140.793,100.360 140.198,100.350 139.397 C 100.342 138.710,101.319 138.897,101.727 139.660 M235.517 139.655 C 235.517 140.169,234.532 140.303,234.149 139.841 C 233.862 139.495,233.877 139.338,234.210 139.222 C 234.754 139.033,235.517 139.285,235.517 139.655 M166.897 139.676 C 166.897 139.876,167.091 139.924,167.328 139.782 C 167.624 139.604,167.612 139.704,167.289 140.102 C 167.030 140.421,166.681 140.597,166.513 140.493 C 166.095 140.235,166.125 139.310,166.552 139.310 C 166.741 139.310,166.897 139.475,166.897 139.676 M231.379 139.634 C 231.379 139.812,231.069 139.934,230.690 139.905 C 230.310 139.877,230.000 139.731,230.000 139.582 C 230.000 139.432,230.310 139.310,230.690 139.310 C 231.069 139.310,231.379 139.456,231.379 139.634 M118.424 140.651 C 118.738 141.158,117.618 141.894,117.188 141.464 C 116.985 141.261,116.923 140.926,117.050 140.720 C 117.330 140.268,118.162 140.226,118.424 140.651 M93.276 141.034 C 93.159 141.224,92.762 141.379,92.393 141.379 C 92.025 141.379,91.724 141.224,91.724 141.034 C 91.724 140.845,92.121 140.690,92.607 140.690 C 93.107 140.690,93.397 140.839,93.276 141.034 M185.172 142.693 C 185.172 143.036,184.945 143.618,184.666 143.986 C 184.185 144.621,184.159 144.601,184.149 143.592 C 184.143 143.007,184.241 142.425,184.368 142.299 C 184.791 141.876,185.172 142.063,185.172 142.693 M92.138 143.862 C 91.816 144.184,91.724 144.092,91.724 143.448 C 91.724 142.805,91.816 142.713,92.138 143.034 C 92.460 143.356,92.460 143.540,92.138 143.862 M106.171 143.074 C 106.917 143.547,106.380 144.450,105.453 144.281 C 105.014 144.201,104.073 144.042,103.362 143.927 C 101.112 143.563,101.877 143.045,105.000 142.819 C 105.379 142.792,105.906 142.906,106.171 143.074 M105.048 146.724 C 105.157 147.009,105.540 147.241,105.899 147.241 C 106.258 147.241,106.552 147.413,106.552 147.623 C 106.552 147.833,106.307 147.911,106.009 147.797 C 105.394 147.561,104.893 148.013,104.126 149.495 C 103.538 150.632,102.496 150.943,101.342 150.325 C 100.662 149.961,100.642 149.882,101.152 149.596 C 101.478 149.414,101.724 148.850,101.724 148.287 C 101.724 146.568,102.032 146.207,103.496 146.207 C 104.381 146.207,104.918 146.386,105.048 146.724 M152.759 147.262 C 152.759 147.440,152.429 147.586,152.027 147.586 C 151.418 147.586,151.366 147.500,151.721 147.073 C 152.152 146.554,152.759 146.664,152.759 147.262 M85.813 147.204 C 86.154 147.420,86.173 147.567,85.882 147.746 C 85.349 148.076,84.383 147.681,84.654 147.244 C 84.914 146.823,85.196 146.813,85.813 147.204 M150.189 147.269 C 150.301 147.450,150.576 147.506,150.800 147.394 C 151.024 147.282,150.906 147.434,150.538 147.733 C 150.098 148.090,149.791 148.151,149.644 147.913 C 149.521 147.713,149.279 147.576,149.106 147.609 C 148.343 147.753,147.241 147.560,147.241 147.282 C 147.241 146.869,149.935 146.856,150.189 147.269 M217.241 148.966 C 217.241 149.382,217.480 149.666,217.845 149.682 C 218.177 149.697,218.269 149.783,218.050 149.873 C 217.554 150.076,215.108 148.800,215.411 148.497 C 215.950 147.958,217.241 148.289,217.241 148.966 M150.000 149.828 C 150.000 150.112,149.854 150.345,149.676 150.345 C 149.241 150.345,148.929 149.806,149.205 149.531 C 149.593 149.143,150.000 149.294,150.000 149.828 M101.244 153.631 C 101.285 153.910,101.125 154.138,100.889 154.138 C 100.198 154.138,99.976 153.721,100.397 153.213 C 100.826 152.697,101.129 152.846,101.244 153.631 M213.448 156.897 C 213.448 157.495,212.870 158.160,212.594 157.879 C 212.528 157.813,212.556 157.334,212.656 156.814 C 212.854 155.786,213.448 155.848,213.448 156.897 M169.783 156.755 C 170.213 156.920,170.235 157.082,169.901 157.617 C 169.335 158.523,168.966 158.442,168.966 157.414 C 168.966 156.478,168.997 156.453,169.783 156.755 M86.897 157.920 C 87.568 158.437,87.667 158.675,87.344 158.999 C 87.021 159.323,86.743 159.235,86.079 158.596 C 84.737 157.304,85.392 156.762,86.897 157.920 M113.300 160.161 C 113.607 160.629,113.778 161.211,113.680 161.454 C 113.563 161.747,113.494 161.705,113.475 161.330 C 113.443 160.647,112.555 160.253,111.676 160.533 C 111.246 160.669,111.034 160.566,111.034 160.221 C 111.034 159.777,111.478 159.512,112.492 159.350 C 112.630 159.328,112.994 159.693,113.300 160.161 M158.535 161.293 C 158.712 161.825,157.782 162.218,157.030 161.929 C 156.572 161.754,156.552 161.623,156.912 161.188 C 157.409 160.589,158.320 160.648,158.535 161.293 M117.036 168.668 C 116.964 168.789,117.096 168.866,117.331 168.840 C 117.566 168.814,117.796 168.948,117.841 169.138 C 117.886 169.328,117.731 169.487,117.496 169.492 C 117.261 169.497,116.836 169.638,116.552 169.806 C 116.267 169.973,116.150 169.984,116.290 169.828 C 116.431 169.673,116.389 169.358,116.198 169.127 C 115.670 168.492,116.142 167.500,116.719 168.033 C 116.966 168.261,117.109 168.547,117.036 168.668 M219.756 168.534 C 219.479 169.283,218.974 169.643,218.190 169.650 C 217.361 169.657,217.427 168.943,218.276 168.721 C 218.655 168.621,218.966 168.403,218.966 168.236 C 218.966 168.068,219.193 167.931,219.472 167.931 C 219.809 167.931,219.904 168.133,219.756 168.534 M135.650 169.148 C 136.536 170.034,136.007 170.725,134.890 170.142 C 134.381 169.876,133.703 169.658,133.382 169.657 C 132.470 169.654,132.315 169.032,133.185 168.865 C 134.691 168.575,135.128 168.625,135.650 169.148 M177.475 169.173 C 177.703 169.767,177.193 170.226,175.932 170.562 C 174.786 170.867,174.670 170.535,175.581 169.554 C 176.522 168.540,177.181 168.407,177.475 169.173 M198.621 168.971 C 199.793 169.740,197.859 170.266,196.363 169.585 C 195.548 169.214,195.519 169.143,196.088 168.920 C 197.004 168.559,198.025 168.580,198.621 168.971 M88.103 173.103 C 87.986 173.293,87.658 173.448,87.373 173.448 C 87.089 173.448,86.952 173.293,87.069 173.103 C 87.186 172.914,87.515 172.759,87.799 172.759 C 88.084 172.759,88.221 172.914,88.103 173.103 M173.448 174.807 C 173.448 175.175,173.293 175.572,173.103 175.690 C 172.908 175.811,172.759 175.521,172.759 175.020 C 172.759 174.535,172.914 174.138,173.103 174.138 C 173.293 174.138,173.448 174.439,173.448 174.807 M188.621 176.897 C 188.621 177.086,188.233 177.241,187.759 177.241 C 187.284 177.241,186.897 177.086,186.897 176.897 C 186.897 176.707,187.284 176.552,187.759 176.552 C 188.233 176.552,188.621 176.707,188.621 176.897 M169.707 179.138 C 169.540 180.094,168.999 180.345,168.047 179.911 C 167.278 179.561,167.267 179.509,167.823 178.894 C 168.599 178.036,169.871 178.201,169.707 179.138 M110.000 180.690 C 110.000 180.879,109.651 181.032,109.224 181.029 C 108.597 181.025,108.547 180.960,108.966 180.690 C 109.634 180.258,110.000 180.258,110.000 180.690 M237.386 180.554 C 238.018 180.797,238.133 182.593,237.539 182.960 C 237.322 183.094,236.892 182.864,236.576 182.447 C 236.263 182.031,235.780 181.750,235.503 181.823 C 235.226 181.896,235.116 181.891,235.259 181.811 C 235.401 181.732,235.517 181.369,235.517 181.006 C 235.517 180.330,236.305 180.139,237.386 180.554 M140.000 183.469 C 140.000 183.647,139.767 183.793,139.483 183.793 C 138.950 183.793,138.798 183.386,139.186 182.998 C 139.462 182.722,140.000 183.034,140.000 183.469 M283.793 184.848 C 283.793 185.026,283.560 185.172,283.276 185.172 C 282.743 185.172,282.591 184.766,282.979 184.377 C 283.255 184.102,283.793 184.413,283.793 184.848 M166.138 186.621 C 166.904 187.387,166.562 187.586,164.483 187.586 C 162.356 187.586,161.779 187.129,163.190 186.562 C 164.305 186.114,165.658 186.141,166.138 186.621 M179.080 191.008 C 182.793 191.929,187.796 193.653,188.966 194.414 C 189.440 194.723,190.681 195.411,191.724 195.944 C 197.913 199.103,204.255 204.812,208.246 210.818 C 210.557 214.294,210.517 214.195,210.517 216.549 C 210.517 220.278,207.424 223.699,202.976 224.888 C 200.250 225.618,197.245 224.100,195.021 220.871 C 192.904 217.797,183.235 210.000,181.541 210.000 C 181.274 210.000,180.469 209.699,179.752 209.332 C 173.467 206.110,158.261 206.962,150.862 210.949 C 147.888 212.552,140.291 219.140,138.608 221.576 C 137.613 223.016,134.165 225.172,132.858 225.172 C 130.643 225.172,126.655 222.959,125.713 221.207 C 125.408 220.638,124.821 219.642,124.410 218.995 C 121.370 214.202,131.453 201.345,142.663 195.722 C 143.274 195.415,144.343 194.778,145.039 194.306 C 147.080 192.921,151.157 191.805,160.000 190.210 C 162.735 189.716,176.130 190.277,179.080 191.008 M94.952 193.276 C 95.097 193.654,94.910 193.793,94.257 193.793 C 93.502 193.793,93.430 193.713,93.793 193.276 C 94.029 192.991,94.342 192.759,94.488 192.759 C 94.634 192.759,94.843 192.991,94.952 193.276 M141.206 193.218 C 141.207 193.250,141.392 193.608,141.618 194.015 C 142.154 194.980,141.910 195.172,140.147 195.172 L 138.685 195.172 139.062 193.944 C 139.372 192.935,141.195 192.317,141.206 193.218 M195.790 194.741 C 195.696 195.208,195.337 195.338,194.212 195.315 C 191.664 195.263,191.802 194.138,194.356 194.138 C 195.655 194.138,195.892 194.238,195.790 194.741 M121.724 195.215 C 121.724 195.824,121.638 195.875,121.211 195.520 C 120.692 195.090,120.802 194.483,121.400 194.483 C 121.578 194.483,121.724 194.812,121.724 195.215 M103.941 197.625 C 103.694 198.026,102.509 198.019,102.260 197.616 C 102.152 197.442,102.260 197.235,102.498 197.155 C 103.138 196.939,104.160 197.272,103.941 197.625 M100.939 201.266 C 101.025 201.523,100.816 201.602,100.365 201.484 C 99.974 201.382,99.655 201.150,99.655 200.969 C 99.655 200.511,100.774 200.770,100.939 201.266 M127.770 204.496 C 128.392 205.182,128.386 205.219,127.509 206.096 C 126.299 207.306,125.143 207.002,125.997 205.698 C 126.302 205.233,126.552 204.614,126.552 204.322 C 126.552 203.594,127.014 203.660,127.770 204.496 M208.448 205.862 C 208.565 206.052,209.040 206.207,209.503 206.207 C 210.677 206.207,210.553 206.667,209.245 207.160 C 207.920 207.661,206.567 206.847,207.285 205.982 C 207.743 205.430,208.155 205.388,208.448 205.862 M51.286 209.619 C 51.799 210.285,51.716 211.095,51.114 211.296 C 50.864 211.379,50.516 210.984,50.304 210.376 C 50.100 209.790,49.793 209.310,49.621 209.310 C 49.450 209.310,49.310 209.145,49.310 208.942 C 49.310 208.432,50.752 208.926,51.286 209.619 M123.914 209.655 C 123.432 210.621,122.414 211.099,122.414 210.358 C 122.414 209.980,123.793 208.621,124.177 208.621 C 124.316 208.621,124.198 209.086,123.914 209.655 M174.713 209.081 C 174.848 209.215,170.394 209.932,169.138 209.978 C 162.404 210.223,158.145 209.640,161.239 208.897 C 162.231 208.659,174.458 208.826,174.713 209.081 M247.241 208.925 C 247.241 209.243,245.821 209.729,245.584 209.492 C 245.509 209.417,245.550 209.191,245.675 208.988 C 245.949 208.546,247.241 208.494,247.241 208.925 M212.216 209.540 C 212.513 210.315,211.953 210.809,211.087 210.534 C 210.419 210.322,210.412 210.275,210.966 209.666 C 211.710 208.850,211.942 208.826,212.216 209.540 M181.412 211.397 C 182.393 211.922,181.887 212.414,180.367 212.414 C 179.002 212.414,177.832 211.613,178.693 211.268 C 179.459 210.960,180.707 211.019,181.412 211.397 M156.552 211.700 C 156.552 211.876,156.757 212.225,157.007 212.475 C 157.384 212.853,157.165 212.940,155.728 212.986 C 154.775 213.016,153.400 213.237,152.673 213.477 C 151.531 213.853,151.275 213.837,150.794 213.356 C 150.281 212.843,150.310 212.781,151.153 212.569 C 151.657 212.442,152.069 212.211,152.069 212.056 C 152.069 211.710,153.131 211.489,155.086 211.426 C 155.892 211.400,156.552 211.523,156.552 211.700 M75.517 216.552 C 75.517 216.999,74.240 218.276,73.793 218.276 C 73.367 218.276,73.366 218.192,73.785 217.091 C 74.111 216.233,75.517 215.795,75.517 216.552 M192.640 220.184 C 192.875 220.685,192.908 221.115,192.720 221.230 C 192.546 221.339,192.492 221.571,192.601 221.748 C 192.883 222.205,192.530 222.147,191.365 221.545 C 190.552 221.124,190.078 219.723,190.664 219.472 C 191.393 219.159,192.315 219.492,192.640 220.184 M142.526 220.828 C 142.709 221.305,142.502 221.724,142.085 221.724 C 141.967 221.724,141.848 221.414,141.819 221.034 C 141.760 220.246,142.248 220.104,142.526 220.828 M150.345 220.690 C 150.345 220.879,150.112 221.034,149.828 221.034 C 149.543 221.034,149.310 220.879,149.310 220.690 C 149.310 220.500,149.543 220.345,149.828 220.345 C 150.112 220.345,150.345 220.500,150.345 220.690 M143.582 222.716 C 144.118 223.309,144.120 223.381,143.607 223.578 C 142.012 224.190,140.586 223.542,141.392 222.571 C 141.964 221.881,142.882 221.942,143.582 222.716 M126.580 224.483 C 126.754 224.483,126.897 224.726,126.897 225.024 C 126.897 225.811,125.383 225.509,125.227 224.691 C 125.133 224.198,125.245 224.092,125.683 224.260 C 126.002 224.383,126.406 224.483,126.580 224.483 M221.134 226.896 C 221.344 227.697,220.795 228.174,220.269 227.648 C 219.871 227.251,220.139 226.207,220.639 226.207 C 220.812 226.207,221.035 226.517,221.134 226.896 M240.266 227.306 C 240.053 227.945,239.310 228.051,239.310 227.443 C 239.310 227.142,239.556 226.897,239.856 226.897 C 240.157 226.897,240.341 227.081,240.266 227.306 M113.103 227.730 C 113.103 227.810,113.198 228.120,113.313 228.420 C 113.463 228.811,113.316 228.966,112.796 228.966 C 112.299 228.966,112.069 228.747,112.069 228.276 C 112.069 227.893,112.299 227.586,112.586 227.586 C 112.871 227.586,113.103 227.651,113.103 227.730 M217.614 228.653 C 217.062 228.874,216.660 228.866,216.424 228.631 C 216.180 228.387,216.442 228.283,217.259 228.298 C 218.376 228.318,218.398 228.340,217.614 228.653 M112.759 230.851 C 112.759 231.159,112.556 231.280,112.243 231.160 C 111.960 231.051,111.814 230.823,111.919 230.654 C 112.220 230.167,112.759 230.294,112.759 230.851 M216.897 231.002 C 216.897 231.575,216.790 231.609,216.064 231.266 C 215.129 230.825,215.214 230.345,216.227 230.345 C 216.656 230.345,216.897 230.581,216.897 231.002 M191.865 232.159 C 192.562 232.026,192.788 232.088,192.617 232.364 C 192.483 232.581,192.149 232.759,191.876 232.759 C 191.603 232.759,191.379 233.069,191.379 233.448 C 191.379 233.828,191.224 234.138,191.034 234.138 C 190.845 234.138,190.690 233.750,190.690 233.276 C 190.690 232.635,190.507 232.414,189.980 232.414 C 189.589 232.414,189.366 232.258,189.483 232.068 C 189.617 231.852,189.917 231.840,190.283 232.036 C 190.606 232.209,191.318 232.264,191.865 232.159 M161.724 234.828 C 161.724 235.573,161.170 235.709,160.345 235.167 C 159.885 234.865,159.885 234.790,160.345 234.488 C 161.170 233.946,161.724 234.083,161.724 234.828 M172.957 241.296 C 172.551 241.702,172.389 241.084,172.651 240.127 L 172.923 239.138 173.039 240.118 C 173.103 240.657,173.066 241.187,172.957 241.296 M115.373 241.334 C 115.250 241.532,114.919 241.605,114.635 241.496 C 114.231 241.341,114.208 241.193,114.528 240.807 C 114.985 240.257,115.745 240.732,115.373 241.334 M183.916 243.304 C 184.538 243.543,184.273 244.483,183.584 244.483 C 183.320 244.483,183.103 244.172,183.103 243.793 C 183.103 243.037,183.149 243.010,183.916 243.304 M168.098 246.560 C 167.994 246.729,167.668 246.774,167.374 246.661 C 166.956 246.501,166.936 246.396,167.282 246.182 C 167.805 245.858,168.370 246.121,168.098 246.560 M196.207 252.958 C 196.207 253.193,195.858 253.286,195.345 253.188 C 194.871 253.097,194.483 252.888,194.483 252.722 C 194.483 252.557,194.871 252.454,195.345 252.493 C 195.819 252.532,196.207 252.742,196.207 252.958 M165.605 253.974 C 165.624 254.159,165.381 254.360,165.063 254.422 C 164.654 254.500,164.547 254.371,164.699 253.976 C 164.922 253.394,165.543 253.393,165.605 253.974 M135.507 261.711 C 135.786 261.887,135.910 262.136,135.782 262.264 C 135.431 262.615,133.734 262.099,133.972 261.714 C 134.231 261.295,134.847 261.293,135.507 261.711 M197.473 277.470 C 197.371 277.572,197.105 277.543,196.883 277.405 C 196.583 277.220,196.599 277.080,196.946 276.864 C 197.406 276.579,197.851 277.091,197.473 277.470 M227.586 278.641 C 227.586 278.820,227.276 278.966,226.897 278.966 C 226.136 278.966,225.957 278.423,226.638 278.179 C 227.160 277.992,227.586 278.200,227.586 278.641 M175.862 278.793 C 175.862 279.078,175.707 279.310,175.517 279.310 C 175.328 279.310,175.172 279.078,175.172 278.793 C 175.172 278.509,175.328 278.276,175.517 278.276 C 175.707 278.276,175.862 278.509,175.862 278.793 M175.862 282.069 C 175.862 282.529,175.632 282.759,175.172 282.759 C 174.391 282.759,174.289 282.401,174.897 281.793 C 175.504 281.185,175.862 281.287,175.862 282.069 " stroke="none" fill="#fbe3d3" fill-rule="evenodd"></path><path id="path2" d="M195.517 140.467 C 182.942 143.229,184.598 163.856,197.401 163.945 C 205.136 163.999,210.330 157.147,208.450 149.367 C 206.847 142.728,201.614 139.128,195.517 140.467 M130.068 140.713 C 121.634 142.373,118.415 154.244,124.515 161.191 C 129.586 166.966,140.409 164.364,142.841 156.785 C 145.818 147.504,139.020 138.950,130.068 140.713 M163.448 192.120 C 160.509 192.243,157.560 192.518,156.897 192.731 C 156.233 192.945,154.056 193.491,152.060 193.945 C 144.347 195.701,135.841 201.382,128.595 209.616 C 124.219 214.588,125.078 221.140,130.310 222.708 C 133.372 223.625,135.155 222.849,138.062 219.335 C 141.315 215.403,146.316 211.431,150.511 209.447 C 151.463 208.997,152.800 208.314,153.482 207.928 C 155.449 206.818,161.092 205.547,165.113 205.307 C 176.763 204.614,188.609 210.004,196.119 219.416 C 200.379 224.756,206.581 224.098,208.225 218.131 C 209.678 212.855,199.638 201.195,190.032 197.004 C 188.971 196.541,187.520 195.863,186.806 195.498 C 182.231 193.157,172.459 191.743,163.448 192.120 " stroke="none" fill="#9c9e92" fill-rule="evenodd"></path><path id="path3" d="M157.510 50.863 C 157.457 50.907,154.543 51.041,151.034 51.161 C 144.518 51.384,140.458 51.783,138.950 52.351 C 138.484 52.526,136.552 52.781,134.655 52.917 C 130.380 53.224,120.189 55.039,118.793 55.742 C 117.628 56.329,112.440 58.196,110.862 58.597 C 110.293 58.741,108.586 59.439,107.069 60.148 C 105.552 60.856,103.224 61.831,101.897 62.313 C 99.097 63.330,95.933 64.872,93.966 66.178 C 93.207 66.682,92.336 67.243,92.031 67.426 C 91.228 67.907,89.730 68.937,87.759 70.364 C 86.810 71.050,85.259 72.040,84.310 72.564 C 83.362 73.087,82.053 73.927,81.401 74.430 C 80.749 74.933,79.896 75.524,79.504 75.743 C 77.812 76.692,65.172 89.143,65.172 89.861 C 65.172 90.074,64.047 91.553,62.672 93.149 C 59.892 96.375,59.767 96.554,58.230 99.483 C 57.633 100.621,56.776 102.036,56.324 102.627 C 55.267 104.014,52.967 108.420,52.431 110.086 C 52.203 110.797,51.894 111.379,51.745 111.379 C 51.597 111.379,51.153 112.039,50.760 112.845 C 49.643 115.131,48.276 118.269,48.276 118.544 C 48.276 118.681,47.675 120.267,46.941 122.069 C 46.207 123.871,45.496 126.121,45.361 127.069 C 45.109 128.830,44.246 132.501,43.301 135.822 C 43.011 136.844,42.702 138.240,42.614 138.926 C 42.527 139.611,42.071 142.578,41.602 145.517 C 39.524 158.536,39.592 192.655,41.710 200.000 C 42.065 201.233,42.541 204.021,42.767 206.197 C 42.993 208.372,43.329 210.545,43.513 211.024 C 43.697 211.504,43.895 212.517,43.952 213.276 C 44.009 214.034,44.316 215.897,44.634 217.414 C 45.149 219.873,45.550 221.143,47.467 226.379 C 47.745 227.138,48.351 228.526,48.814 229.464 C 49.276 230.402,49.655 231.353,49.655 231.578 C 49.655 232.189,51.398 235.916,52.124 236.857 C 52.473 237.309,52.759 237.886,52.759 238.138 C 52.759 238.556,53.658 240.243,56.289 244.758 C 56.809 245.650,57.548 246.960,57.932 247.669 C 58.317 248.378,59.715 250.316,61.040 251.976 C 62.364 253.636,63.448 255.176,63.448 255.399 C 63.448 256.637,75.631 269.509,78.453 271.254 C 79.025 271.607,79.879 272.259,80.350 272.702 C 81.558 273.837,86.780 277.823,89.371 279.588 C 93.232 282.217,94.270 282.836,95.619 283.312 C 96.347 283.568,97.387 284.095,97.931 284.483 C 98.475 284.870,99.571 285.417,100.368 285.698 C 101.164 285.979,102.631 286.675,103.627 287.245 C 105.969 288.585,110.852 290.430,115.920 291.890 C 118.133 292.528,120.228 293.201,120.575 293.387 C 121.153 293.696,127.077 294.845,131.724 295.550 C 132.767 295.708,135.468 296.000,137.726 296.200 C 139.984 296.399,142.855 296.803,144.106 297.097 C 150.035 298.493,180.905 298.638,186.276 297.296 C 186.978 297.120,187.632 297.057,187.730 297.156 C 187.829 297.254,188.341 297.159,188.868 296.946 C 189.396 296.732,191.767 296.324,194.138 296.039 C 196.509 295.755,199.302 295.372,200.345 295.188 C 201.388 295.005,203.017 294.782,203.966 294.692 C 204.914 294.603,207.552 294.034,209.828 293.428 C 212.103 292.821,214.353 292.252,214.828 292.162 C 216.598 291.826,219.886 290.711,221.636 289.853 C 222.631 289.365,223.684 288.966,223.976 288.966 C 224.474 288.966,237.287 282.730,238.082 282.101 C 238.283 281.941,239.612 281.219,241.034 280.497 C 242.457 279.774,244.629 278.349,245.862 277.329 C 247.095 276.310,249.190 274.708,250.517 273.769 C 255.664 270.128,265.079 260.763,267.241 257.132 C 268.707 254.671,270.913 251.585,271.724 250.862 C 272.818 249.885,274.436 247.252,276.280 243.448 C 280.104 235.557,281.724 231.974,281.724 231.406 C 281.724 231.071,282.020 230.529,282.382 230.201 C 283.121 229.532,283.424 228.811,284.419 225.345 C 284.801 224.017,285.426 221.845,285.809 220.517 C 286.192 219.190,286.688 217.172,286.912 216.034 C 287.136 214.897,287.455 213.706,287.622 213.390 C 287.932 212.802,288.623 208.566,289.470 202.069 C 289.959 198.321,290.894 185.786,290.820 183.966 C 290.797 183.397,290.744 178.586,290.702 173.276 C 290.660 167.966,290.412 161.448,290.151 158.793 C 289.889 156.138,289.588 152.414,289.482 150.517 C 289.259 146.562,288.852 144.010,288.053 141.552 C 287.745 140.603,287.367 138.974,287.215 137.931 C 287.062 136.888,286.781 135.336,286.591 134.483 C 286.400 133.629,286.149 132.466,286.032 131.897 C 284.999 126.849,284.663 125.574,283.915 123.860 C 283.443 122.780,282.851 121.509,282.598 121.034 C 282.346 120.560,281.599 118.776,280.939 117.069 C 279.756 114.009,276.114 106.655,274.450 103.966 C 273.980 103.207,273.405 102.198,273.170 101.724 C 272.936 101.250,271.746 99.543,270.525 97.931 C 269.304 96.319,267.096 93.313,265.618 91.251 C 261.178 85.056,251.859 76.141,245.697 72.194 C 244.176 71.219,242.495 70.016,241.961 69.521 C 241.428 69.026,240.903 68.621,240.795 68.621 C 240.687 68.621,238.670 67.496,236.311 66.121 C 230.665 62.828,230.881 62.943,228.103 61.777 C 221.717 59.095,218.556 57.971,215.909 57.439 C 214.323 57.121,212.617 56.558,212.116 56.188 C 211.616 55.819,209.989 55.283,208.500 54.999 C 207.012 54.714,205.675 54.408,205.529 54.317 C 205.113 54.060,200.230 53.198,195.690 52.580 C 193.414 52.271,190.931 51.883,190.172 51.718 C 188.282 51.309,157.934 50.514,157.510 50.863 M165.345 53.588 C 165.914 53.655,166.654 53.825,166.991 53.964 C 167.327 54.104,168.180 54.083,168.887 53.919 C 169.594 53.755,171.491 53.663,173.103 53.715 C 174.716 53.766,177.198 53.779,178.621 53.743 C 182.837 53.636,184.843 53.678,187.759 53.932 C 190.691 54.187,191.354 54.259,195.690 54.798 C 197.207 54.986,200.233 55.289,202.414 55.471 C 205.222 55.705,206.802 56.011,207.828 56.521 C 208.625 56.917,209.586 57.241,209.963 57.241 C 210.340 57.241,210.742 57.392,210.856 57.576 C 211.154 58.058,214.093 59.308,214.958 59.322 C 215.875 59.336,219.112 60.441,219.724 60.948 C 220.418 61.525,223.715 62.656,226.034 63.114 C 227.172 63.339,228.569 63.729,229.138 63.981 C 229.707 64.233,230.465 64.530,230.823 64.640 C 231.428 64.828,231.434 64.886,230.909 65.465 C 230.036 66.430,230.222 66.612,231.827 66.372 C 233.225 66.162,233.390 66.230,234.718 67.557 C 235.492 68.332,236.338 68.968,236.597 68.972 C 237.543 68.985,241.873 71.429,243.332 72.773 C 244.155 73.532,245.214 74.329,245.684 74.543 C 246.154 74.757,246.629 75.219,246.741 75.570 C 246.852 75.920,247.165 76.207,247.437 76.207 C 247.709 76.207,247.931 76.347,247.931 76.518 C 247.931 76.798,248.605 77.284,251.363 78.993 C 251.846 79.292,252.629 80.097,253.103 80.781 C 253.578 81.465,254.789 82.586,255.795 83.273 C 258.196 84.910,259.310 85.896,259.310 86.381 C 259.310 86.599,259.698 87.141,260.172 87.586 C 260.647 88.032,261.034 88.570,261.034 88.783 C 261.034 88.996,261.667 89.784,262.440 90.533 C 263.213 91.283,264.057 92.399,264.317 93.012 C 264.576 93.626,265.379 94.738,266.101 95.483 C 268.030 97.473,269.655 99.513,269.655 99.944 C 269.655 100.151,270.123 100.854,270.696 101.506 C 271.874 102.848,274.828 108.445,274.828 109.335 C 274.828 109.657,275.231 110.185,275.724 110.508 C 276.386 110.942,276.579 111.311,276.463 111.918 C 276.366 112.427,276.537 112.951,276.912 113.290 C 277.245 113.591,277.623 114.410,277.752 115.109 C 277.881 115.808,278.264 116.690,278.603 117.069 C 278.942 117.448,279.312 118.150,279.424 118.628 C 279.537 119.106,280.084 120.192,280.640 121.041 C 282.175 123.384,283.787 129.183,283.802 132.414 C 283.806 133.267,283.978 134.586,284.183 135.345 C 284.388 136.103,284.541 137.220,284.521 137.826 C 284.502 138.431,284.641 139.022,284.829 139.139 C 285.018 139.256,285.172 139.812,285.172 140.376 C 285.172 140.940,285.426 141.978,285.735 142.683 C 286.222 143.792,286.454 144.816,287.042 148.448 C 287.103 148.828,287.185 149.138,287.223 149.138 C 287.261 149.138,287.363 150.938,287.450 153.139 C 287.537 155.339,287.807 158.110,288.049 159.296 C 288.349 160.768,288.398 162.180,288.202 163.744 C 287.938 165.855,288.108 169.554,288.544 171.207 C 289.264 173.932,288.594 189.712,287.716 190.718 C 287.454 191.018,287.343 191.366,287.468 191.491 C 287.969 191.992,287.949 201.991,287.444 203.515 C 287.174 204.332,286.765 206.241,286.536 207.759 C 286.307 209.276,285.913 210.685,285.660 210.890 C 284.970 211.449,284.484 212.971,284.476 214.591 C 284.458 218.309,282.588 225.761,281.042 228.276 C 280.133 229.755,278.621 233.485,278.621 234.250 C 278.621 234.813,278.382 235.202,277.953 235.338 C 277.561 235.462,277.040 236.218,276.688 237.171 C 276.359 238.063,275.891 239.030,275.648 239.319 C 275.404 239.609,275.098 240.513,274.968 241.329 C 274.828 242.208,274.469 242.977,274.089 243.214 C 273.737 243.434,273.448 243.953,273.448 244.367 C 273.448 244.781,272.905 245.831,272.241 246.701 C 271.578 247.570,271.034 248.375,271.034 248.488 C 271.034 248.601,270.645 249.000,270.170 249.374 C 269.694 249.748,268.906 250.897,268.419 251.926 C 267.932 252.956,266.847 254.603,266.008 255.585 C 265.169 256.568,264.483 257.565,264.483 257.801 C 264.483 258.037,264.182 258.325,263.815 258.441 C 263.448 258.558,262.866 259.089,262.522 259.623 C 261.217 261.645,259.835 263.311,258.914 263.971 C 258.390 264.347,256.720 265.741,255.205 267.069 C 251.750 270.096,250.447 271.101,249.330 271.604 C 248.242 272.095,246.982 273.290,245.910 274.850 C 244.914 276.297,241.656 278.432,239.958 278.748 C 239.271 278.876,238.355 279.287,237.923 279.662 C 237.490 280.038,237.019 280.345,236.876 280.345 C 236.734 280.345,235.982 280.876,235.205 281.524 C 234.429 282.173,233.329 282.806,232.760 282.931 C 231.586 283.189,226.989 285.357,226.207 286.022 C 225.922 286.263,224.631 286.798,223.338 287.209 C 222.044 287.620,220.417 288.261,219.722 288.633 C 219.027 289.006,217.793 289.310,216.979 289.310 C 216.166 289.310,214.617 289.621,213.538 290.000 C 212.459 290.379,211.361 290.690,211.099 290.690 C 210.836 290.690,210.133 290.913,209.535 291.186 C 208.486 291.665,203.514 292.468,201.034 292.558 C 200.371 292.582,199.207 292.927,198.448 293.324 C 197.352 293.897,196.423 294.049,193.918 294.063 C 191.969 294.073,189.668 294.349,187.884 294.786 C 184.172 295.694,176.650 296.348,170.517 296.294 C 167.862 296.272,162.741 296.238,159.138 296.220 C 155.467 296.201,151.070 295.969,149.138 295.692 C 142.592 294.752,139.127 294.368,135.951 294.229 C 133.289 294.114,132.688 293.981,132.298 293.424 C 132.028 293.040,131.480 292.782,131.002 292.814 C 130.546 292.845,129.443 292.617,128.551 292.307 C 127.660 291.997,126.404 291.764,125.761 291.788 C 125.117 291.812,124.373 291.695,124.106 291.527 C 123.839 291.360,122.767 291.116,121.724 290.986 C 119.786 290.744,117.268 290.138,116.034 289.616 C 114.072 288.786,113.200 288.491,112.452 288.405 C 111.999 288.353,110.835 288.078,109.866 287.796 C 108.896 287.513,107.716 287.201,107.241 287.103 C 106.767 287.004,105.619 286.413,104.689 285.790 C 101.745 283.813,98.869 282.414,97.752 282.414 C 97.395 282.414,96.629 281.963,96.051 281.412 C 95.473 280.861,93.526 279.652,91.724 278.725 C 88.190 276.906,84.876 274.817,84.846 274.390 C 84.800 273.730,83.044 271.379,82.597 271.379 C 81.675 271.379,77.164 267.875,74.326 264.954 C 69.214 259.693,67.214 257.458,66.532 256.246 C 66.094 255.466,65.633 254.828,65.509 254.828 C 64.845 254.828,60.866 249.182,59.311 246.034 C 58.936 245.276,58.433 244.346,58.194 243.969 C 55.888 240.333,52.819 235.246,52.086 233.844 C 51.853 233.398,51.524 232.060,51.356 230.870 C 51.187 229.681,50.675 227.951,50.217 227.026 C 49.759 226.101,49.280 224.851,49.152 224.248 C 49.025 223.645,48.714 222.979,48.460 222.768 C 48.206 222.558,47.744 221.267,47.432 219.899 C 47.121 218.532,46.718 216.853,46.536 216.167 C 46.355 215.481,46.207 214.365,46.207 213.687 C 46.207 213.009,46.066 212.367,45.893 212.260 C 45.720 212.154,45.468 210.709,45.333 209.050 C 45.197 207.392,44.886 205.491,44.642 204.828 C 44.397 204.164,44.112 202.578,44.009 201.303 C 43.906 200.028,43.604 198.554,43.338 198.027 C 42.414 196.191,41.726 188.191,41.699 178.966 C 41.685 174.129,41.669 169.862,41.663 169.483 C 41.632 167.477,42.112 159.074,42.412 156.379 C 42.601 154.672,42.818 152.267,42.892 151.034 C 42.967 149.802,43.200 148.356,43.411 147.822 C 43.621 147.288,43.793 146.093,43.793 145.166 C 43.793 144.239,43.932 143.124,44.102 142.689 C 44.272 142.253,44.600 140.810,44.830 139.483 C 45.061 138.155,45.441 136.759,45.675 136.379 C 45.908 136.000,46.192 134.565,46.306 133.191 C 46.419 131.816,46.746 130.265,47.033 129.742 C 47.320 129.220,47.705 128.095,47.889 127.241 C 48.074 126.388,48.462 125.069,48.752 124.310 C 49.043 123.552,49.287 122.541,49.295 122.064 C 49.304 121.587,49.636 120.346,50.033 119.305 C 50.431 118.265,50.996 116.638,51.290 115.690 C 51.584 114.741,52.175 113.500,52.605 112.931 C 53.034 112.362,53.806 111.004,54.319 109.914 C 54.833 108.823,55.378 107.931,55.530 107.931 C 55.683 107.931,55.905 107.486,56.024 106.943 C 56.144 106.400,56.582 105.590,56.998 105.143 C 58.245 103.805,59.118 102.349,59.884 100.333 C 60.767 98.008,61.967 96.193,63.439 94.955 C 64.049 94.442,64.920 93.432,65.376 92.710 C 66.206 91.395,68.852 88.425,70.940 86.465 C 71.552 85.891,72.134 85.171,72.233 84.866 C 72.332 84.560,72.994 83.922,73.705 83.448 C 74.415 82.974,76.076 81.535,77.396 80.249 C 78.715 78.964,80.748 77.379,81.914 76.727 C 83.079 76.076,84.240 75.293,84.493 74.987 C 84.747 74.682,85.538 74.134,86.252 73.770 C 86.965 73.406,87.674 72.897,87.826 72.639 C 88.121 72.140,90.209 70.688,92.512 69.380 C 93.280 68.944,94.486 68.130,95.193 67.570 C 95.900 67.010,96.622 66.552,96.798 66.552 C 96.974 66.552,97.713 66.262,98.441 65.908 C 99.168 65.555,100.038 65.337,100.375 65.425 C 100.715 65.514,101.496 65.178,102.134 64.669 C 102.765 64.166,104.289 63.392,105.520 62.950 C 109.628 61.477,112.422 60.355,113.197 59.869 C 113.620 59.605,114.778 59.200,115.772 58.971 C 116.765 58.742,117.973 58.243,118.456 57.863 C 120.311 56.405,126.907 55.292,134.084 55.227 C 136.155 55.209,138.557 55.035,139.422 54.841 C 140.287 54.647,141.224 54.577,141.505 54.685 C 141.785 54.793,142.329 54.713,142.712 54.507 C 143.096 54.302,145.164 54.054,147.308 53.957 C 149.453 53.859,152.216 53.664,153.448 53.523 C 155.567 53.280,163.100 53.321,165.345 53.588 M135.391 69.925 C 135.296 70.079,135.341 70.405,135.492 70.649 C 135.706 70.995,135.811 70.975,135.971 70.557 C 136.188 69.992,135.688 69.445,135.391 69.925 M99.310 76.207 C 99.310 76.879,99.676 77.106,100.091 76.690 C 100.367 76.414,100.006 75.517,99.618 75.517 C 99.449 75.517,99.310 75.828,99.310 76.207 M95.517 88.276 C 95.517 88.466,95.750 88.621,96.034 88.621 C 96.319 88.621,96.552 88.466,96.552 88.276 C 96.552 88.086,96.319 87.931,96.034 87.931 C 95.750 87.931,95.517 88.086,95.517 88.276 M167.450 99.168 C 167.155 99.937,167.179 100.000,167.759 100.000 C 168.043 100.000,168.276 99.776,168.276 99.503 C 168.276 98.774,167.692 98.537,167.450 99.168 M122.590 99.305 C 122.335 99.716,122.658 100.345,123.124 100.345 C 123.543 100.345,123.546 99.412,123.127 99.153 C 122.951 99.044,122.709 99.112,122.590 99.305 M103.103 99.828 C 103.103 100.112,103.259 100.345,103.448 100.345 C 103.638 100.345,103.793 100.112,103.793 99.828 C 103.793 99.543,103.638 99.310,103.448 99.310 C 103.259 99.310,103.103 99.543,103.103 99.828 M111.945 101.963 C 111.556 102.352,111.708 102.759,112.241 102.759 C 112.526 102.759,112.759 102.613,112.759 102.434 C 112.759 101.999,112.220 101.688,111.945 101.963 M131.541 102.086 C 131.213 102.616,131.662 102.959,132.105 102.516 C 132.352 102.268,132.358 102.075,132.123 101.930 C 131.930 101.811,131.668 101.881,131.541 102.086 M234.368 112.644 C 234.032 112.979,234.097 114.573,234.469 115.163 C 234.807 115.697,234.782 115.731,235.334 113.966 C 235.643 112.977,234.964 112.048,234.368 112.644 M153.448 114.008 C 153.448 114.772,153.528 114.846,153.966 114.483 C 154.250 114.247,154.483 113.840,154.483 113.578 C 154.483 113.317,154.250 113.103,153.966 113.103 C 153.637 113.103,153.448 113.434,153.448 114.008 M182.931 113.793 C 183.048 113.983,183.368 114.138,183.641 114.138 C 183.914 114.138,184.138 113.983,184.138 113.793 C 184.138 113.603,183.818 113.448,183.428 113.448 C 183.037 113.448,182.814 113.603,182.931 113.793 M115.255 123.099 C 114.433 124.416,114.696 124.882,116.121 124.632 C 117.784 124.341,118.556 123.472,117.705 122.849 C 116.828 122.208,115.742 122.319,115.255 123.099 M226.552 123.945 C 226.552 124.218,226.707 124.538,226.897 124.655 C 227.086 124.772,227.241 124.549,227.241 124.158 C 227.241 123.768,227.086 123.448,226.897 123.448 C 226.707 123.448,226.552 123.672,226.552 123.945 M60.851 126.569 C 60.524 127.099,60.973 127.441,61.415 126.999 C 61.663 126.751,61.669 126.558,61.433 126.413 C 61.240 126.293,60.978 126.364,60.851 126.569 M145.259 128.849 C 144.583 129.122,144.754 129.655,145.517 129.655 C 145.900 129.655,146.207 129.425,146.207 129.138 C 146.207 128.607,146.009 128.546,145.259 128.849 M178.621 129.323 C 178.621 129.882,178.429 130.006,177.685 129.927 C 176.998 129.854,176.713 130.000,176.616 130.477 C 176.482 131.133,178.156 131.051,178.617 130.379 C 178.714 130.238,179.065 130.022,179.397 129.899 C 180.228 129.593,180.163 128.621,179.310 128.621 C 178.846 128.621,178.621 128.851,178.621 129.323 M187.241 129.311 C 186.866 129.553,186.848 129.646,187.176 129.650 C 187.424 129.653,187.540 129.796,187.434 129.968 C 187.327 130.140,187.557 130.198,187.945 130.096 C 188.332 129.995,188.594 129.748,188.527 129.547 C 188.352 129.020,187.837 128.926,187.241 129.311 M135.423 132.163 C 135.320 132.430,135.355 132.842,135.501 133.077 C 135.697 133.394,135.827 133.348,135.998 132.902 C 136.125 132.570,136.090 132.159,135.919 131.988 C 135.735 131.804,135.533 131.876,135.423 132.163 M184.994 133.114 C 184.618 133.722,185.432 134.360,186.071 133.958 C 186.365 133.772,186.632 133.466,186.665 133.276 C 186.750 132.783,185.286 132.641,184.994 133.114 M97.786 134.093 C 97.680 134.264,97.825 134.596,98.107 134.831 C 98.525 135.177,98.621 135.156,98.621 134.718 C 98.621 134.074,98.058 133.653,97.786 134.093 M168.279 134.652 C 168.023 134.960,167.547 135.089,167.090 134.974 C 166.629 134.859,166.156 134.991,165.892 135.308 C 165.522 135.754,165.605 135.864,166.435 136.033 C 166.973 136.143,167.802 136.353,168.276 136.499 C 168.844 136.676,169.407 136.596,169.928 136.265 L 170.718 135.764 169.954 134.951 C 169.059 133.999,168.851 133.962,168.279 134.652 M194.402 136.338 C 193.576 136.965,193.988 137.241,195.747 137.241 C 197.429 137.241,197.670 136.858,196.363 136.262 C 195.278 135.768,195.146 135.773,194.402 136.338 M128.966 136.433 C 123.547 136.882,125.433 137.434,131.948 137.307 C 135.057 137.246,137.191 137.078,136.897 136.917 C 136.266 136.571,131.101 136.256,128.966 136.433 M191.724 136.897 C 191.724 137.086,192.034 137.241,192.414 137.241 C 192.793 137.241,193.103 137.086,193.103 136.897 C 193.103 136.707,192.793 136.552,192.414 136.552 C 192.034 136.552,191.724 136.707,191.724 136.897 M197.586 136.897 C 197.586 137.086,198.043 137.241,198.600 137.241 C 199.158 137.241,199.710 137.086,199.828 136.897 C 199.954 136.691,199.544 136.552,198.813 136.552 C 198.138 136.552,197.586 136.707,197.586 136.897 M201.897 136.897 C 201.779 137.086,202.012 137.241,202.414 137.241 C 202.815 137.241,203.048 137.086,202.931 136.897 C 202.814 136.707,202.581 136.552,202.414 136.552 C 202.247 136.552,202.014 136.707,201.897 136.897 M102.320 137.963 C 101.499 138.441,101.889 138.966,103.066 138.966 C 104.194 138.966,104.504 138.731,104.250 138.070 C 104.033 137.505,103.187 137.458,102.320 137.963 M117.050 137.961 C 116.923 138.167,116.998 138.515,117.217 138.734 C 117.649 139.167,118.392 138.398,118.060 137.861 C 117.819 137.471,117.323 137.520,117.050 137.961 M168.276 138.024 C 167.541 138.328,167.507 138.403,168.043 138.531 C 168.414 138.620,168.595 138.880,168.484 139.168 C 168.362 139.487,168.534 139.655,168.983 139.655 C 169.560 139.655,169.691 138.341,169.176 137.713 C 169.155 137.687,168.750 137.827,168.276 138.024 M123.793 138.448 C 123.793 138.764,123.960 138.967,124.164 138.899 C 124.368 138.831,124.534 138.628,124.534 138.448 C 124.534 138.268,124.368 138.065,124.164 137.997 C 123.960 137.929,123.793 138.132,123.793 138.448 M141.415 139.013 C 140.961 139.185,140.651 139.362,140.726 139.408 C 140.801 139.453,141.199 139.773,141.610 140.118 C 142.337 140.728,142.370 140.727,142.724 140.065 C 143.221 139.136,142.539 138.588,141.415 139.013 M100.350 139.397 C 100.360 140.198,100.958 140.793,101.532 140.573 C 101.984 140.399,102.023 140.214,101.727 139.660 C 101.319 138.897,100.342 138.710,100.350 139.397 M234.210 139.222 C 233.877 139.338,233.862 139.495,234.149 139.841 C 234.532 140.303,235.517 140.169,235.517 139.655 C 235.517 139.285,234.754 139.033,234.210 139.222 M166.207 139.807 C 166.207 140.586,166.772 140.740,167.289 140.102 C 167.612 139.704,167.624 139.604,167.328 139.782 C 167.091 139.924,166.897 139.876,166.897 139.676 C 166.897 139.475,166.741 139.310,166.552 139.310 C 166.362 139.310,166.207 139.534,166.207 139.807 M230.000 139.582 C 230.000 139.731,230.310 139.877,230.690 139.905 C 231.069 139.934,231.379 139.812,231.379 139.634 C 231.379 139.456,231.069 139.310,230.690 139.310 C 230.310 139.310,230.000 139.432,230.000 139.582 M117.050 140.720 C 116.923 140.926,116.985 141.261,117.188 141.464 C 117.618 141.894,118.738 141.158,118.424 140.651 C 118.162 140.226,117.330 140.268,117.050 140.720 M91.724 141.034 C 91.724 141.224,92.025 141.379,92.393 141.379 C 92.762 141.379,93.159 141.224,93.276 141.034 C 93.397 140.839,93.107 140.690,92.607 140.690 C 92.121 140.690,91.724 140.845,91.724 141.034 M184.368 142.299 C 184.241 142.425,184.143 143.007,184.149 143.592 C 184.159 144.601,184.185 144.621,184.666 143.986 C 185.472 142.920,185.213 141.454,184.368 142.299 M91.724 143.448 C 91.724 144.092,91.816 144.184,92.138 143.862 C 92.460 143.540,92.460 143.356,92.138 143.034 C 91.816 142.713,91.724 142.805,91.724 143.448 M103.190 143.008 C 101.683 143.195,101.772 143.670,103.362 143.927 C 104.073 144.042,105.014 144.201,105.453 144.281 C 106.380 144.450,106.917 143.547,106.171 143.074 C 105.685 142.766,105.223 142.756,103.190 143.008 M101.933 146.752 C 101.818 147.052,101.724 147.743,101.724 148.287 C 101.724 148.850,101.478 149.414,101.152 149.596 C 100.642 149.882,100.662 149.961,101.342 150.325 C 102.496 150.943,103.538 150.632,104.126 149.495 C 104.893 148.013,105.394 147.561,106.009 147.797 C 106.307 147.911,106.552 147.833,106.552 147.623 C 106.552 147.413,106.258 147.241,105.899 147.241 C 105.540 147.241,105.157 147.009,105.048 146.724 C 104.768 145.995,102.215 146.018,101.933 146.752 M151.721 147.073 C 151.366 147.500,151.418 147.586,152.027 147.586 C 152.429 147.586,152.759 147.440,152.759 147.262 C 152.759 146.664,152.152 146.554,151.721 147.073 M84.654 147.244 C 84.383 147.681,85.349 148.076,85.882 147.746 C 86.173 147.567,86.154 147.420,85.813 147.204 C 85.196 146.813,84.914 146.823,84.654 147.244 M147.241 147.282 C 147.241 147.560,148.343 147.753,149.106 147.609 C 149.279 147.576,149.521 147.713,149.644 147.913 C 149.791 148.151,150.098 148.090,150.538 147.733 C 150.906 147.434,151.024 147.282,150.800 147.394 C 150.576 147.506,150.301 147.450,150.189 147.269 C 149.935 146.856,147.241 146.869,147.241 147.282 M215.411 148.497 C 215.108 148.800,217.554 150.076,218.050 149.873 C 218.269 149.783,218.177 149.697,217.845 149.682 C 217.480 149.666,217.241 149.382,217.241 148.966 C 217.241 148.289,215.950 147.958,215.411 148.497 M149.205 149.531 C 148.929 149.806,149.241 150.345,149.676 150.345 C 149.854 150.345,150.000 150.112,150.000 149.828 C 150.000 149.294,149.593 149.143,149.205 149.531 M100.397 153.213 C 99.976 153.721,100.198 154.138,100.889 154.138 C 101.125 154.138,101.285 153.910,101.244 153.631 C 101.129 152.846,100.826 152.697,100.397 153.213 M212.656 156.814 C 212.556 157.334,212.528 157.813,212.594 157.879 C 212.870 158.160,213.448 157.495,213.448 156.897 C 213.448 155.848,212.854 155.786,212.656 156.814 M168.966 157.414 C 168.966 158.442,169.335 158.523,169.901 157.617 C 170.235 157.082,170.213 156.920,169.783 156.755 C 168.997 156.453,168.966 156.478,168.966 157.414 M85.393 157.509 C 85.060 158.047,86.896 159.449,87.344 158.999 C 87.667 158.675,87.568 158.437,86.897 157.920 C 85.949 157.191,85.641 157.107,85.393 157.509 M111.638 159.548 C 111.306 159.635,111.034 159.938,111.034 160.221 C 111.034 160.566,111.246 160.669,111.676 160.533 C 112.555 160.253,113.443 160.647,113.475 161.330 C 113.494 161.705,113.563 161.747,113.680 161.454 C 113.870 160.982,112.911 159.283,112.492 159.350 C 112.354 159.372,111.970 159.461,111.638 159.548 M156.912 161.188 C 156.552 161.623,156.572 161.754,157.030 161.929 C 157.782 162.218,158.712 161.825,158.535 161.293 C 158.320 160.648,157.409 160.589,156.912 161.188 M116.060 168.163 C 115.944 168.463,116.007 168.897,116.198 169.127 C 116.389 169.358,116.431 169.673,116.290 169.828 C 116.150 169.984,116.267 169.973,116.552 169.806 C 116.836 169.638,117.261 169.497,117.496 169.492 C 117.731 169.487,117.886 169.328,117.841 169.138 C 117.796 168.948,117.566 168.814,117.331 168.840 C 117.096 168.866,116.964 168.789,117.036 168.668 C 117.109 168.547,116.966 168.261,116.719 168.033 C 116.364 167.705,116.224 167.733,116.060 168.163 M218.966 168.236 C 218.966 168.403,218.655 168.621,218.276 168.721 C 217.427 168.943,217.361 169.657,218.190 169.650 C 218.974 169.643,219.479 169.283,219.756 168.534 C 219.904 168.133,219.809 167.931,219.472 167.931 C 219.193 167.931,218.966 168.068,218.966 168.236 M133.185 168.865 C 132.315 169.032,132.470 169.654,133.382 169.657 C 133.703 169.658,134.381 169.876,134.890 170.142 C 136.007 170.725,136.536 170.034,135.650 169.148 C 135.128 168.625,134.691 168.575,133.185 168.865 M175.581 169.554 C 174.670 170.535,174.786 170.867,175.932 170.562 C 177.193 170.226,177.703 169.767,177.475 169.173 C 177.181 168.407,176.522 168.540,175.581 169.554 M196.088 168.920 C 195.519 169.143,195.548 169.214,196.363 169.585 C 197.460 170.085,197.937 170.098,198.621 169.650 C 199.707 168.936,197.594 168.327,196.088 168.920 M87.069 173.103 C 86.952 173.293,87.089 173.448,87.373 173.448 C 87.658 173.448,87.986 173.293,88.103 173.103 C 88.221 172.914,88.084 172.759,87.799 172.759 C 87.515 172.759,87.186 172.914,87.069 173.103 M172.759 175.020 C 172.759 175.521,172.908 175.811,173.103 175.690 C 173.293 175.572,173.448 175.175,173.448 174.807 C 173.448 174.439,173.293 174.138,173.103 174.138 C 172.914 174.138,172.759 174.535,172.759 175.020 M186.897 176.897 C 186.897 177.086,187.284 177.241,187.759 177.241 C 188.233 177.241,188.621 177.086,188.621 176.897 C 188.621 176.707,188.233 176.552,187.759 176.552 C 187.284 176.552,186.897 176.707,186.897 176.897 M167.823 178.894 C 167.267 179.509,167.278 179.561,168.047 179.911 C 168.999 180.345,169.540 180.094,169.707 179.138 C 169.871 178.201,168.599 178.036,167.823 178.894 M108.966 180.690 C 108.547 180.960,108.597 181.025,109.224 181.029 C 109.651 181.032,110.000 180.879,110.000 180.690 C 110.000 180.258,109.634 180.258,108.966 180.690 M235.517 181.006 C 235.517 181.369,235.401 181.732,235.259 181.811 C 235.116 181.891,235.226 181.896,235.503 181.823 C 235.780 181.750,236.263 182.031,236.576 182.447 C 237.282 183.382,237.931 183.043,237.931 181.741 C 237.931 180.748,237.425 180.345,236.179 180.345 C 235.757 180.345,235.517 180.584,235.517 181.006 M139.186 182.998 C 138.798 183.386,138.950 183.793,139.483 183.793 C 139.767 183.793,140.000 183.647,140.000 183.469 C 140.000 183.034,139.462 182.722,139.186 182.998 M282.979 184.377 C 282.591 184.766,282.743 185.172,283.276 185.172 C 283.560 185.172,283.793 185.026,283.793 184.848 C 283.793 184.413,283.255 184.102,282.979 184.377 M163.190 186.562 C 161.779 187.129,162.356 187.586,164.483 187.586 C 166.562 187.586,166.904 187.387,166.138 186.621 C 165.658 186.141,164.305 186.114,163.190 186.562 M93.793 193.276 C 93.430 193.713,93.502 193.793,94.257 193.793 C 94.910 193.793,95.097 193.654,94.952 193.276 C 94.843 192.991,94.634 192.759,94.488 192.759 C 94.342 192.759,94.029 192.991,93.793 193.276 M139.062 193.944 L 138.685 195.172 140.147 195.172 C 141.910 195.172,142.154 194.980,141.618 194.015 C 141.392 193.608,141.207 193.250,141.206 193.218 C 141.195 192.317,139.372 192.935,139.062 193.944 M192.572 194.506 C 192.218 195.078,192.634 195.283,194.212 195.315 C 195.337 195.338,195.696 195.208,195.790 194.741 C 195.932 194.044,192.990 193.829,192.572 194.506 M120.886 194.789 C 120.782 194.957,120.928 195.286,121.211 195.520 C 121.638 195.875,121.724 195.824,121.724 195.215 C 121.724 194.475,121.234 194.226,120.886 194.789 M102.498 197.155 C 102.260 197.235,102.152 197.442,102.260 197.616 C 102.509 198.019,103.694 198.026,103.941 197.625 C 104.160 197.272,103.138 196.939,102.498 197.155 M99.655 200.969 C 99.655 201.150,99.974 201.382,100.365 201.484 C 100.816 201.602,101.025 201.523,100.939 201.266 C 100.774 200.770,99.655 200.511,99.655 200.969 M126.552 204.322 C 126.552 204.614,126.302 205.233,125.997 205.698 C 125.143 207.002,126.299 207.306,127.509 206.096 C 128.386 205.219,128.392 205.182,127.770 204.496 C 127.014 203.660,126.552 203.594,126.552 204.322 M207.285 205.982 C 206.567 206.847,207.920 207.661,209.245 207.160 C 210.553 206.667,210.677 206.207,209.503 206.207 C 209.040 206.207,208.565 206.052,208.448 205.862 C 208.155 205.388,207.743 205.430,207.285 205.982 M49.310 208.942 C 49.310 209.145,49.450 209.310,49.621 209.310 C 49.793 209.310,50.100 209.790,50.304 210.376 C 50.516 210.984,50.864 211.379,51.114 211.296 C 51.716 211.095,51.799 210.285,51.286 209.619 C 50.752 208.926,49.310 208.432,49.310 208.942 M123.168 209.324 C 122.301 210.132,122.194 210.690,122.906 210.690 C 123.176 210.690,123.630 210.224,123.914 209.655 C 124.514 208.452,124.237 208.328,123.168 209.324 M161.239 208.897 C 158.145 209.640,162.404 210.223,169.138 209.978 C 170.394 209.932,174.848 209.215,174.713 209.081 C 174.458 208.826,162.231 208.659,161.239 208.897 M245.675 208.988 C 245.550 209.191,245.509 209.417,245.584 209.492 C 245.821 209.729,247.241 209.243,247.241 208.925 C 247.241 208.494,245.949 208.546,245.675 208.988 M210.966 209.666 C 210.412 210.275,210.419 210.322,211.087 210.534 C 211.953 210.809,212.513 210.315,212.216 209.540 C 211.942 208.826,211.710 208.850,210.966 209.666 M178.693 211.268 C 178.350 211.405,178.340 211.559,178.649 211.930 C 179.099 212.473,181.573 212.592,181.886 212.086 C 182.325 211.376,179.943 210.766,178.693 211.268 M152.845 211.623 C 152.418 211.705,152.069 211.900,152.069 212.056 C 152.069 212.211,151.657 212.442,151.153 212.569 C 150.310 212.781,150.281 212.843,150.794 213.356 C 151.275 213.837,151.531 213.853,152.673 213.477 C 153.400 213.237,154.775 213.016,155.728 212.986 C 157.165 212.940,157.384 212.853,157.007 212.475 C 156.757 212.225,156.552 211.876,156.552 211.700 C 156.552 211.382,154.334 211.336,152.845 211.623 M73.785 217.091 C 73.366 218.192,73.367 218.276,73.793 218.276 C 74.240 218.276,75.517 216.999,75.517 216.552 C 75.517 215.795,74.111 216.233,73.785 217.091 M190.664 219.472 C 190.078 219.723,190.552 221.124,191.365 221.545 C 192.530 222.147,192.883 222.205,192.601 221.748 C 192.492 221.571,192.546 221.339,192.720 221.230 C 193.673 220.642,191.756 219.003,190.664 219.472 M141.819 221.034 C 141.871 221.727,142.121 221.902,142.505 221.518 C 142.773 221.250,142.425 220.345,142.054 220.345 C 141.896 220.345,141.790 220.655,141.819 221.034 M149.310 220.690 C 149.310 220.879,149.543 221.034,149.828 221.034 C 150.112 221.034,150.345 220.879,150.345 220.690 C 150.345 220.500,150.112 220.345,149.828 220.345 C 149.543 220.345,149.310 220.500,149.310 220.690 M141.392 222.571 C 140.586 223.542,142.012 224.190,143.607 223.578 C 144.120 223.381,144.118 223.309,143.582 222.716 C 142.882 221.942,141.964 221.881,141.392 222.571 M125.227 224.691 C 125.383 225.509,126.897 225.811,126.897 225.024 C 126.897 224.726,126.754 224.483,126.580 224.483 C 126.406 224.483,126.002 224.383,125.683 224.260 C 125.245 224.092,125.133 224.198,125.227 224.691 M220.116 226.747 C 219.875 227.376,220.471 228.107,220.972 227.797 C 221.377 227.547,221.096 226.207,220.639 226.207 C 220.465 226.207,220.230 226.450,220.116 226.747 M239.310 227.443 C 239.310 227.743,239.495 227.927,239.720 227.852 C 240.359 227.639,240.465 226.897,239.856 226.897 C 239.556 226.897,239.310 227.142,239.310 227.443 M112.069 228.276 C 112.069 228.747,112.299 228.966,112.796 228.966 C 113.316 228.966,113.463 228.811,113.313 228.420 C 113.198 228.120,113.103 227.810,113.103 227.730 C 113.103 227.651,112.871 227.586,112.586 227.586 C 112.299 227.586,112.069 227.893,112.069 228.276 M216.424 228.631 C 216.660 228.866,217.062 228.874,217.614 228.653 C 218.398 228.340,218.376 228.318,217.259 228.298 C 216.442 228.283,216.180 228.387,216.424 228.631 M111.919 230.654 C 111.814 230.823,111.960 231.051,112.243 231.160 C 112.556 231.280,112.759 231.159,112.759 230.851 C 112.759 230.294,112.220 230.167,111.919 230.654 M215.395 230.609 C 215.305 230.754,215.606 231.050,216.064 231.266 C 216.790 231.609,216.897 231.575,216.897 231.002 C 216.897 230.349,215.742 230.047,215.395 230.609 M189.483 232.068 C 189.366 232.258,189.589 232.414,189.980 232.414 C 190.507 232.414,190.690 232.635,190.690 233.276 C 190.690 233.750,190.845 234.138,191.034 234.138 C 191.224 234.138,191.379 233.828,191.379 233.448 C 191.379 233.069,191.603 232.759,191.876 232.759 C 192.149 232.759,192.483 232.581,192.617 232.364 C 192.788 232.088,192.562 232.026,191.865 232.159 C 191.318 232.264,190.606 232.209,190.283 232.036 C 189.917 231.840,189.617 231.852,189.483 232.068 M160.345 234.488 C 159.885 234.790,159.885 234.865,160.345 235.167 C 161.170 235.709,161.724 235.573,161.724 234.828 C 161.724 234.083,161.170 233.946,160.345 234.488 M172.651 240.127 C 172.502 240.671,172.465 241.201,172.569 241.305 C 172.929 241.665,173.155 241.094,173.039 240.118 L 172.923 239.138 172.651 240.127 M114.528 240.807 C 114.208 241.193,114.231 241.341,114.635 241.496 C 115.259 241.736,115.726 241.105,115.266 240.645 C 115.056 240.436,114.788 240.495,114.528 240.807 M183.103 243.793 C 183.103 244.172,183.320 244.483,183.584 244.483 C 184.273 244.483,184.538 243.543,183.916 243.304 C 183.149 243.010,183.103 243.037,183.103 243.793 M167.282 246.182 C 166.936 246.396,166.956 246.501,167.374 246.661 C 167.668 246.774,167.994 246.729,168.098 246.560 C 168.370 246.121,167.805 245.858,167.282 246.182 M194.483 252.722 C 194.483 252.888,194.871 253.097,195.345 253.188 C 195.858 253.286,196.207 253.193,196.207 252.958 C 196.207 252.742,195.819 252.532,195.345 252.493 C 194.871 252.454,194.483 252.557,194.483 252.722 M164.699 253.976 C 164.547 254.371,164.654 254.500,165.063 254.422 C 165.675 254.304,165.793 253.713,165.241 253.529 C 165.060 253.468,164.816 253.670,164.699 253.976 M133.972 261.714 C 133.734 262.099,135.431 262.615,135.782 262.264 C 136.044 262.002,135.218 261.393,134.589 261.385 C 134.363 261.382,134.086 261.530,133.972 261.714 M196.946 276.864 C 196.599 277.080,196.583 277.220,196.883 277.405 C 197.356 277.698,197.711 277.439,197.536 276.929 C 197.464 276.720,197.221 276.694,196.946 276.864 M226.638 278.179 C 225.957 278.423,226.136 278.966,226.897 278.966 C 227.276 278.966,227.586 278.820,227.586 278.641 C 227.586 278.200,227.160 277.992,226.638 278.179 M175.172 278.793 C 175.172 279.078,175.328 279.310,175.517 279.310 C 175.707 279.310,175.862 279.078,175.862 278.793 C 175.862 278.509,175.707 278.276,175.517 278.276 C 175.328 278.276,175.172 278.509,175.172 278.793 M174.897 281.793 C 174.289 282.401,174.391 282.759,175.172 282.759 C 175.632 282.759,175.862 282.529,175.862 282.069 C 175.862 281.287,175.504 281.185,174.897 281.793 " stroke="none" fill="#fce4dc" fill-rule="evenodd"></path><path id="path4" d="M194.138 138.714 C 185.550 141.732,182.142 152.532,187.240 160.571 C 189.428 164.020,196.277 166.782,199.761 165.619 C 200.366 165.417,201.578 165.064,202.454 164.835 C 207.752 163.449,211.818 156.183,210.723 150.055 C 209.294 142.059,200.917 136.331,194.138 138.714 M128.843 138.865 C 120.087 141.119,116.464 154.173,122.442 161.931 C 123.877 163.793,124.773 164.298,128.765 165.493 C 140.860 169.113,149.914 156.255,143.295 144.859 C 140.507 140.058,134.265 137.470,128.843 138.865 M202.279 141.291 C 208.290 144.270,210.171 149.940,207.710 157.665 C 205.590 164.322,194.647 166.163,189.907 160.661 C 181.667 151.094,191.378 135.889,202.279 141.291 M134.973 140.869 C 148.102 144.289,145.734 164.149,132.199 164.135 C 117.627 164.119,117.681 141.165,132.255 140.383 C 132.642 140.362,133.865 140.581,134.973 140.869 M160.000 190.210 C 151.157 191.805,147.080 192.921,145.039 194.306 C 144.343 194.778,143.274 195.415,142.663 195.722 C 131.453 201.345,121.370 214.202,124.410 218.995 C 124.821 219.642,125.408 220.638,125.713 221.207 C 126.655 222.959,130.643 225.172,132.858 225.172 C 134.165 225.172,137.613 223.016,138.608 221.576 C 140.291 219.140,147.888 212.552,150.862 210.949 C 158.261 206.962,173.467 206.110,179.752 209.332 C 180.469 209.699,181.274 210.000,181.541 210.000 C 183.235 210.000,192.904 217.797,195.021 220.871 C 197.245 224.100,200.250 225.618,202.976 224.888 C 207.424 223.699,210.517 220.278,210.517 216.549 C 210.517 214.195,210.557 214.294,208.246 210.818 C 204.255 204.812,197.913 199.103,191.724 195.944 C 190.681 195.411,189.440 194.723,188.966 194.414 C 187.796 193.653,182.793 191.929,179.080 191.008 C 176.130 190.277,162.735 189.716,160.000 190.210 M180.613 193.601 C 183.306 194.279,186.093 195.133,186.806 195.498 C 187.520 195.863,188.971 196.541,190.032 197.004 C 199.638 201.195,209.678 212.855,208.225 218.131 C 206.581 224.098,200.379 224.756,196.119 219.416 C 188.609 210.004,176.763 204.614,165.113 205.307 C 161.092 205.547,155.449 206.818,153.482 207.928 C 152.800 208.314,151.463 208.997,150.511 209.447 C 146.316 211.431,141.315 215.403,138.062 219.335 C 135.155 222.849,133.372 223.625,130.310 222.708 C 125.078 221.140,124.219 214.588,128.595 209.616 C 135.841 201.382,144.347 195.701,152.060 193.945 C 154.056 193.491,156.233 192.945,156.897 192.731 C 161.019 191.407,173.753 191.874,180.613 193.601 " stroke="none" fill="#ccc4bc" fill-rule="evenodd"></path></g></svg>