<svg id="svg" version="1.1" xmlns="http://www.w3.org/2000/svg" xmlns:xlink="http://www.w3.org/1999/xlink" width="400" height="357.33333333333337" viewBox="0, 0, 400,357.33333333333337"><g id="svgg"><path id="path0" d="M201.209 143.166 C 193.838 144.634,189.860 151.158,191.298 159.418 C 193.480 171.951,210.281 172.781,214.737 160.575 C 217.784 152.228,211.343 141.653,203.825 142.661 C 203.687 142.679,202.510 142.907,201.209 143.166 M269.000 143.775 C 254.476 145.656,255.591 168.621,270.241 169.361 C 278.255 169.766,282.605 165.183,282.553 156.390 C 282.501 147.740,277.112 142.724,269.000 143.775 M194.943 199.139 C 185.780 201.794,193.101 218.876,207.561 228.582 C 208.711 229.354,209.973 230.265,210.366 230.608 C 216.086 235.591,236.605 239.013,246.828 236.688 C 254.131 235.027,258.820 233.341,262.123 231.187 C 267.272 227.831,268.245 227.076,272.213 223.363 C 282.992 213.277,286.194 203.891,280.208 199.930 C 276.287 197.335,272.636 198.611,269.268 203.753 C 265.780 209.081,259.041 215.364,254.432 217.588 C 253.454 218.060,252.057 218.822,251.328 219.282 C 247.904 221.444,239.479 223.292,234.870 222.893 C 226.764 222.190,221.784 220.091,213.283 213.793 C 211.047 212.136,206.281 206.520,204.677 203.652 C 202.184 199.195,199.326 197.870,194.943 199.139 " stroke="none" fill="#72a69d" fill-rule="evenodd"></path><path id="path1" d="M235.210 55.446 C 234.325 55.592,232.717 55.725,231.635 55.743 C 230.554 55.761,229.438 55.921,229.155 56.100 C 228.820 56.312,228.388 56.248,227.914 55.916 C 226.922 55.221,223.469 55.246,222.688 55.953 C 222.207 56.388,221.876 56.420,221.066 56.112 C 220.078 55.737,209.745 56.229,208.400 56.715 C 208.105 56.822,206.658 56.969,205.183 57.042 C 197.337 57.429,194.386 58.063,191.777 59.924 C 190.614 60.753,188.375 61.477,186.953 61.484 C 186.461 61.486,185.576 61.751,184.987 62.073 C 182.561 63.395,180.554 64.258,178.016 65.071 C 176.542 65.543,174.628 66.387,173.764 66.947 C 172.844 67.542,171.472 68.049,170.454 68.170 C 169.498 68.283,168.403 68.635,168.021 68.951 C 167.639 69.267,166.499 70.009,165.488 70.599 C 162.846 72.140,159.536 74.580,157.394 76.565 C 156.374 77.511,155.276 78.284,154.956 78.284 C 153.990 78.284,150.066 81.318,148.299 83.431 C 147.388 84.521,145.855 86.101,144.893 86.942 C 141.912 89.549,136.550 95.396,136.550 96.041 C 136.550 96.225,135.987 96.990,135.299 97.741 C 134.187 98.955,133.866 99.650,134.006 100.536 C 134.029 100.684,133.837 100.804,133.579 100.804 C 132.715 100.804,131.036 102.956,129.407 106.148 C 128.519 107.888,127.053 110.574,126.149 112.118 C 125.246 113.661,124.311 115.717,124.073 116.686 C 123.834 117.655,123.328 118.885,122.948 119.418 C 122.186 120.488,120.054 125.278,118.997 128.295 C 118.625 129.357,117.915 130.759,117.419 131.408 C 116.521 132.587,115.696 136.570,115.304 141.624 C 115.004 145.491,114.329 150.599,114.006 151.449 C 113.823 151.931,113.673 153.173,113.673 154.209 C 113.673 155.244,113.596 156.168,113.503 156.262 C 113.409 156.355,113.254 159.881,113.157 164.096 C 112.660 185.800,113.395 210.876,114.612 213.711 C 114.925 214.442,115.246 216.503,115.341 218.409 C 115.600 223.544,116.316 227.109,117.366 228.489 C 117.860 229.138,118.762 231.349,119.371 233.402 C 119.980 235.455,120.716 237.398,121.007 237.719 C 121.299 238.041,121.537 238.499,121.537 238.736 C 121.537 238.973,121.786 239.547,122.090 240.011 C 122.394 240.476,123.125 242.271,123.713 244.001 C 124.301 245.731,124.920 247.316,125.089 247.523 C 125.257 247.730,125.826 248.945,126.353 250.223 C 126.881 251.501,127.519 252.709,127.771 252.907 C 128.023 253.106,128.637 254.071,129.135 255.052 C 129.632 256.034,130.798 257.866,131.725 259.124 C 132.652 260.383,133.976 262.295,134.666 263.374 C 135.356 264.453,136.805 266.319,137.887 267.520 C 141.403 271.428,147.364 277.556,148.184 278.105 C 148.624 278.400,149.826 279.417,150.855 280.365 C 151.884 281.314,153.115 282.237,153.590 282.418 C 154.065 282.598,154.717 283.206,155.040 283.768 C 155.362 284.330,156.039 284.948,156.544 285.141 C 157.338 285.446,159.876 287.033,162.441 288.829 C 162.862 289.124,163.742 289.687,164.397 290.080 C 165.052 290.474,166.228 291.318,167.010 291.957 C 167.792 292.596,168.645 293.119,168.905 293.119 C 169.453 293.119,173.683 295.294,175.514 296.517 C 176.202 296.977,177.489 297.541,178.374 297.771 C 179.258 298.001,180.545 298.476,181.233 298.825 C 183.186 299.817,187.029 300.963,189.701 301.349 C 195.100 302.129,197.891 302.654,198.570 303.015 C 198.963 303.224,200.239 303.511,201.405 303.653 C 202.570 303.794,203.857 304.118,204.264 304.372 C 204.909 304.774,208.424 305.278,211.796 305.452 C 212.386 305.483,213.753 305.773,214.835 306.098 C 215.916 306.422,217.846 306.770,219.124 306.870 C 220.402 306.970,222.574 307.208,223.950 307.399 C 227.470 307.887,248.264 307.648,249.866 307.100 C 251.693 306.476,254.009 306.112,259.339 305.612 C 262.959 305.272,265.263 304.908,269.597 303.992 C 270.914 303.713,272.553 303.485,273.240 303.485 C 273.927 303.485,274.588 303.324,274.710 303.128 C 274.831 302.931,275.490 302.770,276.173 302.770 C 276.857 302.770,277.772 302.552,278.207 302.284 C 278.643 302.017,280.206 301.591,281.680 301.337 C 286.835 300.450,296.002 297.613,297.408 296.470 C 297.703 296.230,298.427 295.921,299.017 295.782 C 299.607 295.644,301.091 294.907,302.315 294.146 C 303.539 293.384,304.927 292.761,305.399 292.761 C 305.871 292.761,306.454 292.525,306.694 292.235 C 306.934 291.946,309.246 290.654,311.832 289.365 C 316.102 287.236,318.691 285.449,324.397 280.696 C 324.790 280.368,326.077 279.436,327.256 278.624 C 329.332 277.195,333.155 273.603,333.155 273.081 C 333.155 272.940,334.039 271.896,335.121 270.762 C 336.202 269.627,337.087 268.512,337.087 268.283 C 337.087 268.053,337.851 267.144,338.785 266.261 C 342.166 263.064,349.200 252.434,349.235 250.468 C 349.238 250.307,349.631 249.664,350.107 249.038 C 350.584 248.412,351.652 246.291,352.481 244.325 C 353.310 242.359,354.269 240.498,354.614 240.189 C 354.958 239.880,355.565 238.512,355.964 237.150 C 356.363 235.788,357.024 233.724,357.433 232.563 C 357.842 231.402,358.177 230.177,358.177 229.841 C 358.177 229.504,358.596 227.398,359.108 225.160 C 360.676 218.307,361.036 216.486,361.044 215.371 C 361.048 214.781,361.298 213.253,361.598 211.975 C 363.141 205.415,363.971 174.620,362.869 164.790 C 362.637 162.726,362.395 159.589,362.329 157.819 C 362.264 156.050,362.011 153.959,361.768 153.172 C 361.524 152.386,361.201 150.858,361.049 149.777 C 360.898 148.695,360.506 145.880,360.179 143.521 C 359.853 141.162,359.497 138.945,359.390 138.596 C 359.283 138.246,359.133 137.470,359.057 136.872 C 358.981 136.273,358.763 135.272,358.572 134.648 C 358.381 134.023,358.060 132.869,357.857 132.082 C 356.667 127.465,355.478 124.101,354.753 123.296 C 354.474 122.986,354.245 122.596,354.245 122.431 C 354.245 122.265,354.029 121.876,353.764 121.565 C 353.500 121.255,352.912 119.794,352.459 118.320 C 352.005 116.845,351.363 115.317,351.031 114.924 C 350.325 114.086,348.883 111.310,348.883 110.788 C 348.883 110.590,348.320 109.592,347.632 108.570 C 346.944 107.548,346.381 106.580,346.381 106.419 C 346.381 105.413,344.659 102.775,342.600 100.626 C 341.282 99.249,339.819 97.560,339.349 96.872 C 337.457 94.099,336.645 93.070,335.530 92.037 C 334.887 91.442,334.077 90.477,333.729 89.892 C 333.380 89.308,332.463 88.433,331.690 87.950 C 330.916 87.466,329.924 86.541,329.485 85.894 C 329.046 85.247,328.427 84.633,328.109 84.531 C 327.792 84.428,326.585 83.406,325.428 82.261 C 324.271 81.115,322.601 79.743,321.716 79.211 C 320.831 78.678,318.901 77.279,317.426 76.101 C 313.943 73.319,310.292 70.870,308.906 70.387 C 308.300 70.176,307.711 69.710,307.597 69.351 C 307.483 68.993,306.793 68.460,306.063 68.167 C 305.334 67.875,303.822 67.216,302.704 66.704 C 301.586 66.192,300.436 65.773,300.149 65.773 C 299.861 65.773,298.708 65.290,297.587 64.701 C 296.466 64.111,295.155 63.628,294.673 63.628 C 294.192 63.628,293.320 63.381,292.737 63.079 C 292.153 62.777,290.209 62.051,288.418 61.466 C 286.626 60.880,284.345 59.992,283.349 59.492 C 281.346 58.485,278.144 57.829,272.207 57.207 C 270.045 56.981,267.263 56.624,266.026 56.415 C 264.789 56.206,263.156 56.134,262.397 56.256 C 261.638 56.377,258.953 56.309,256.430 56.104 C 253.223 55.843,251.805 55.844,251.718 56.107 C 251.649 56.314,251.405 56.362,251.176 56.213 C 250.777 55.954,246.728 55.796,240.866 55.810 C 239.356 55.814,237.828 55.674,237.470 55.499 C 237.112 55.324,236.095 55.300,235.210 55.446 M201.609 138.121 C 201.609 138.395,201.393 138.702,201.129 138.803 C 200.475 139.054,199.673 138.510,199.975 138.020 C 200.328 137.450,201.609 137.529,201.609 138.121 M210.127 142.545 C 212.661 143.790,215.192 146.095,215.192 147.160 C 215.192 147.419,215.323 147.632,215.483 147.632 C 215.644 147.632,216.066 148.235,216.421 148.972 C 219.176 154.684,217.661 162.754,212.911 167.668 C 210.390 170.277,209.043 170.688,203.025 170.688 L 197.829 170.688 195.855 169.492 C 179.863 159.804,193.364 134.314,210.127 142.545 M276.231 142.657 C 288.631 147.555,287.778 168.239,275.067 170.871 C 272.155 171.474,266.770 171.085,264.499 170.108 C 258.746 167.633,254.672 157.095,257.300 151.486 C 257.694 150.644,258.286 149.365,258.616 148.643 C 259.691 146.286,262.995 143.515,265.801 142.616 C 270.992 140.954,271.926 140.957,276.231 142.657 M219.955 156.355 C 220.157 156.881,219.926 157.283,219.422 157.283 C 219.258 157.283,219.124 156.962,219.124 156.568 C 219.124 155.749,219.669 155.609,219.955 156.355 M202.529 197.797 C 204.234 198.925,205.066 199.980,206.542 202.881 C 207.784 205.324,211.527 209.746,214.020 211.716 C 214.960 212.458,216.590 213.745,217.644 214.576 C 224.530 220.004,234.471 222.233,242.804 220.219 C 244.481 219.813,246.133 219.482,246.475 219.482 C 246.817 219.482,248.001 219.022,249.107 218.461 C 250.212 217.900,251.519 217.315,252.011 217.161 C 252.502 217.008,254.103 215.920,255.569 214.745 C 257.034 213.569,258.803 212.239,259.501 211.790 C 262.129 210.096,268.811 202.029,268.811 200.552 C 268.811 200.175,271.364 197.871,272.444 197.272 C 274.187 196.306,279.178 196.645,281.025 197.855 C 287.310 201.975,287.123 208.426,280.465 217.158 C 278.203 220.125,270.145 228.418,269.524 228.418 C 269.330 228.418,268.567 228.951,267.829 229.603 C 267.092 230.255,265.684 231.242,264.701 231.797 C 263.718 232.353,262.657 233.028,262.344 233.299 C 261.491 234.034,257.857 235.858,255.228 236.869 C 245.884 240.464,223.251 239.809,215.550 235.721 C 215.058 235.460,213.932 234.935,213.047 234.554 C 212.163 234.173,211.117 233.598,210.724 233.277 C 210.331 232.956,208.159 231.358,205.898 229.725 C 200.509 225.833,197.429 222.627,193.558 216.878 C 193.058 216.134,192.319 215.196,191.916 214.794 C 189.746 212.624,188.028 206.883,188.655 203.897 C 189.916 197.881,197.571 194.516,202.529 197.797 M226.453 217.565 C 226.897 217.736,226.935 217.864,226.604 218.069 C 226.053 218.409,225.133 218.093,225.403 217.657 C 225.639 217.275,225.686 217.271,226.453 217.565 M246.861 218.126 C 246.540 218.306,245.918 218.339,245.480 218.199 C 244.713 217.956,244.710 217.936,245.392 217.697 C 246.439 217.329,247.652 217.683,246.861 218.126 M207.883 232.739 C 208.016 232.953,207.951 233.300,207.741 233.510 C 207.295 233.956,206.134 233.193,206.459 232.667 C 206.731 232.227,207.594 232.270,207.883 232.739 " stroke="none" fill="#caf3e1" fill-rule="evenodd"></path><path id="path2" d="M0.000 178.731 L 0.000 357.462 200.000 357.462 L 400.000 357.462 400.000 178.731 L 400.000 0.000 200.000 0.000 L 0.000 0.000 0.000 178.731 M259.517 53.255 C 265.492 53.821,271.536 54.679,273.995 55.311 C 275.174 55.614,276.944 55.981,277.927 56.126 C 281.385 56.637,283.572 57.200,284.676 57.863 C 285.289 58.231,286.756 58.808,287.936 59.146 C 289.115 59.484,291.367 60.148,292.940 60.623 C 294.513 61.098,295.930 61.486,296.089 61.485 C 296.633 61.482,305.451 65.488,306.984 66.435 C 307.827 66.956,309.723 68.186,311.198 69.169 C 312.673 70.152,314.990 71.680,316.347 72.565 C 325.021 78.219,335.474 87.799,340.918 95.085 C 342.607 97.346,344.440 99.650,344.991 100.206 C 345.542 100.762,346.588 102.290,347.316 103.602 C 348.044 104.914,348.985 106.406,349.408 106.917 C 349.831 107.428,350.616 108.795,351.152 109.955 C 351.689 111.115,352.420 112.627,352.777 113.315 C 353.134 114.004,353.534 115.016,353.667 115.565 C 353.885 116.464,356.081 121.402,357.277 123.682 C 357.736 124.556,359.490 130.135,360.985 135.478 C 361.398 136.953,361.986 139.848,362.291 141.912 C 362.596 143.977,363.158 147.676,363.541 150.134 C 365.418 162.201,365.507 200.460,363.688 212.869 C 363.399 214.835,363.091 217.339,363.002 218.435 C 362.913 219.530,362.615 220.978,362.339 221.652 C 362.063 222.326,361.647 223.994,361.415 225.359 C 360.525 230.580,358.882 235.468,355.940 241.644 C 354.863 243.905,353.866 246.126,353.725 246.580 C 352.929 249.142,349.365 255.821,347.403 258.429 C 346.153 260.092,344.376 262.550,343.456 263.893 C 342.536 265.235,341.473 266.610,341.094 266.947 C 340.716 267.284,338.950 269.330,337.170 271.492 C 333.438 276.026,329.816 279.445,325.432 282.574 C 324.881 282.967,323.940 283.709,323.341 284.222 C 322.742 284.735,321.763 285.406,321.165 285.712 C 320.566 286.018,319.284 286.924,318.314 287.726 C 317.344 288.527,315.421 289.768,314.039 290.483 C 312.658 291.199,311.126 292.148,310.634 292.592 C 310.143 293.037,309.182 293.519,308.499 293.663 C 307.816 293.808,305.483 294.803,303.316 295.875 C 295.961 299.512,290.881 301.700,289.795 301.699 C 289.441 301.698,288.685 301.939,288.114 302.234 C 286.978 302.822,284.040 303.601,279.893 304.414 C 278.418 304.703,276.729 305.090,276.139 305.274 C 274.754 305.707,271.146 306.263,265.773 306.871 C 263.414 307.139,261.081 307.512,260.590 307.701 C 260.098 307.890,258.570 308.154,257.194 308.287 C 253.804 308.617,252.274 308.793,249.330 309.191 C 244.591 309.832,218.377 309.295,214.656 308.480 C 212.887 308.093,209.428 307.455,206.971 307.063 C 204.513 306.671,201.296 306.102,199.821 305.799 C 198.347 305.495,195.290 304.939,193.029 304.563 C 188.570 303.822,188.250 303.736,183.735 302.052 C 182.064 301.429,179.700 300.550,178.482 300.099 C 177.264 299.647,175.494 298.830,174.550 298.283 C 173.605 297.736,170.938 296.351,168.623 295.206 C 164.646 293.238,159.345 289.729,156.568 287.225 C 155.880 286.605,154.853 285.787,154.286 285.408 C 153.719 285.029,152.649 284.316,151.908 283.825 C 144.108 278.650,127.532 259.227,125.650 253.055 C 125.504 252.579,124.858 251.305,124.212 250.223 C 122.859 247.956,122.053 246.135,121.286 243.610 C 120.987 242.627,120.363 241.074,119.900 240.160 C 118.891 238.166,117.755 234.840,117.433 232.931 C 117.304 232.169,116.820 230.963,116.358 230.250 C 115.895 229.537,115.354 228.311,115.156 227.525 C 113.734 221.899,113.192 219.509,112.940 217.747 C 112.781 216.637,112.386 214.281,112.061 212.511 C 111.381 208.812,111.301 208.084,111.031 203.217 C 110.922 201.251,110.751 198.436,110.650 196.962 C 109.818 184.753,110.564 151.983,111.717 150.117 C 111.810 149.967,112.053 148.224,112.256 146.244 C 112.691 142.000,115.512 131.073,116.528 129.693 C 116.916 129.165,117.395 128.013,117.593 127.133 C 118.110 124.823,122.172 114.496,122.957 113.494 C 123.111 113.298,123.356 112.735,123.502 112.243 C 123.647 111.752,123.974 111.108,124.227 110.813 C 124.865 110.070,126.769 106.705,127.770 104.552 C 128.228 103.565,129.197 102.048,129.922 101.181 C 130.647 100.313,131.572 98.948,131.978 98.148 C 133.460 95.227,149.404 78.799,152.665 76.833 C 156.087 74.771,159.318 72.591,159.780 72.036 C 160.053 71.706,161.091 71.026,162.087 70.524 C 163.082 70.022,164.482 69.150,165.199 68.586 C 165.915 68.022,166.590 67.560,166.699 67.560 C 166.807 67.560,169.036 66.524,171.652 65.257 C 176.504 62.908,180.469 61.390,185.880 59.811 C 187.551 59.323,189.723 58.512,190.706 58.010 C 192.929 56.873,198.702 55.507,204.111 54.838 C 206.372 54.558,209.508 54.109,211.081 53.839 C 212.654 53.569,214.826 53.319,215.907 53.283 C 216.988 53.247,219.240 53.097,220.912 52.951 C 225.307 52.564,254.672 52.796,259.517 53.255 " stroke="none" fill="#fbfcfb" fill-rule="evenodd"></path><path id="path3" d="M201.028 141.188 C 187.863 143.183,184.330 162.510,195.855 169.492 L 197.829 170.688 203.025 170.688 C 209.043 170.688,210.390 170.277,212.911 167.668 C 217.661 162.754,219.176 154.684,216.421 148.972 C 216.066 148.235,215.644 147.632,215.483 147.632 C 215.323 147.632,215.192 147.419,215.192 147.160 C 215.192 143.909,206.701 140.329,201.028 141.188 M269.526 141.537 C 263.971 142.812,260.137 145.309,258.616 148.643 C 258.286 149.365,257.694 150.644,257.300 151.486 C 254.672 157.095,258.746 167.633,264.499 170.108 C 266.770 171.085,272.155 171.474,275.067 170.871 C 287.778 168.239,288.631 147.555,276.231 142.657 C 273.088 141.416,271.331 141.122,269.526 141.537 M205.970 143.029 C 219.454 145.890,218.561 166.521,204.842 169.082 C 198.385 170.288,192.453 166.055,191.298 159.418 C 189.682 150.137,194.318 143.936,203.825 142.661 C 203.963 142.642,204.928 142.808,205.970 143.029 M275.916 144.430 C 285.436 148.551,284.586 166.464,274.744 169.119 C 264.468 171.892,256.425 162.803,259.462 151.851 C 261.271 145.326,269.458 141.634,275.916 144.430 M193.438 197.738 C 187.648 200.767,186.849 209.727,191.916 214.794 C 192.319 215.196,193.058 216.134,193.558 216.878 C 197.429 222.627,200.509 225.833,205.898 229.725 C 208.159 231.358,210.331 232.956,210.724 233.277 C 211.117 233.598,212.163 234.173,213.047 234.554 C 213.932 234.935,215.058 235.460,215.550 235.721 C 223.251 239.809,245.884 240.464,255.228 236.869 C 257.857 235.858,261.491 234.034,262.344 233.299 C 262.657 233.028,263.718 232.353,264.701 231.797 C 265.684 231.242,267.092 230.255,267.829 229.603 C 268.567 228.951,269.330 228.418,269.524 228.418 C 270.145 228.418,278.203 220.125,280.465 217.158 C 287.123 208.426,287.310 201.975,281.025 197.855 C 279.178 196.645,274.187 196.306,272.444 197.272 C 271.364 197.871,268.811 200.175,268.811 200.552 C 268.811 202.029,262.129 210.096,259.501 211.790 C 258.803 212.239,257.034 213.569,255.569 214.745 C 254.103 215.920,252.502 217.008,252.011 217.161 C 251.519 217.315,250.212 217.900,249.107 218.461 C 248.001 219.022,246.817 219.482,246.475 219.482 C 246.133 219.482,244.481 219.813,242.804 220.219 C 234.471 222.233,224.530 220.004,217.644 214.576 C 216.590 213.745,214.960 212.458,214.020 211.716 C 211.527 209.746,207.784 205.324,206.542 202.881 C 203.428 196.758,198.790 194.938,193.438 197.738 M200.424 199.129 C 201.911 199.691,203.270 201.136,204.677 203.652 C 207.847 209.320,212.772 213.977,220.382 218.502 C 229.583 223.972,243.349 224.319,251.328 219.282 C 252.057 218.822,253.454 218.060,254.432 217.588 C 259.041 215.364,265.780 209.081,269.268 203.753 C 272.636 198.611,276.287 197.335,280.208 199.930 C 286.194 203.891,282.992 213.277,272.213 223.363 C 268.245 227.076,267.272 227.831,262.123 231.187 C 258.820 233.341,254.131 235.027,246.828 236.688 C 236.605 239.013,216.086 235.591,210.366 230.608 C 209.973 230.265,208.711 229.354,207.561 228.582 C 200.319 223.721,192.295 213.810,191.042 208.178 C 189.596 201.678,194.542 196.907,200.424 199.129 " stroke="none" fill="#acd4cc" fill-rule="evenodd"></path><path id="path4" d="M220.912 52.951 C 219.240 53.097,216.988 53.247,215.907 53.283 C 214.826 53.319,212.654 53.569,211.081 53.839 C 209.508 54.109,206.372 54.558,204.111 54.838 C 198.702 55.507,192.929 56.873,190.706 58.010 C 189.723 58.512,187.551 59.323,185.880 59.811 C 180.469 61.390,176.504 62.908,171.652 65.257 C 169.036 66.524,166.807 67.560,166.699 67.560 C 166.590 67.560,165.915 68.022,165.199 68.586 C 164.482 69.150,163.082 70.022,162.087 70.524 C 161.091 71.026,160.053 71.706,159.780 72.036 C 159.318 72.591,156.087 74.771,152.665 76.833 C 149.404 78.799,133.460 95.227,131.978 98.148 C 131.572 98.948,130.647 100.313,129.922 101.181 C 129.197 102.048,128.228 103.565,127.770 104.552 C 126.769 106.705,124.865 110.070,124.227 110.813 C 123.974 111.108,123.647 111.752,123.502 112.243 C 123.356 112.735,123.111 113.298,122.957 113.494 C 122.172 114.496,118.110 124.823,117.593 127.133 C 117.395 128.013,116.916 129.165,116.528 129.693 C 115.512 131.073,112.691 142.000,112.256 146.244 C 112.053 148.224,111.810 149.967,111.717 150.117 C 110.564 151.983,109.818 184.753,110.650 196.962 C 110.751 198.436,110.922 201.251,111.031 203.217 C 111.301 208.084,111.381 208.812,112.061 212.511 C 112.386 214.281,112.781 216.637,112.940 217.747 C 113.192 219.509,113.734 221.899,115.156 227.525 C 115.354 228.311,115.895 229.537,116.358 230.250 C 116.820 230.963,117.304 232.169,117.433 232.931 C 117.755 234.840,118.891 238.166,119.900 240.160 C 120.363 241.074,120.987 242.627,121.286 243.610 C 122.053 246.135,122.859 247.956,124.212 250.223 C 124.858 251.305,125.504 252.579,125.650 253.055 C 127.532 259.227,144.108 278.650,151.908 283.825 C 152.649 284.316,153.719 285.029,154.286 285.408 C 154.853 285.787,155.880 286.605,156.568 287.225 C 159.345 289.729,164.646 293.238,168.623 295.206 C 170.938 296.351,173.605 297.736,174.550 298.283 C 175.494 298.830,177.264 299.647,178.482 300.099 C 179.700 300.550,182.064 301.429,183.735 302.052 C 188.250 303.736,188.570 303.822,193.029 304.563 C 195.290 304.939,198.347 305.495,199.821 305.799 C 201.296 306.102,204.513 306.671,206.971 307.063 C 209.428 307.455,212.887 308.093,214.656 308.480 C 218.377 309.295,244.591 309.832,249.330 309.191 C 252.274 308.793,253.804 308.617,257.194 308.287 C 258.570 308.154,260.098 307.890,260.590 307.701 C 261.081 307.512,263.414 307.139,265.773 306.871 C 271.146 306.263,274.754 305.707,276.139 305.274 C 276.729 305.090,278.418 304.703,279.893 304.414 C 284.040 303.601,286.978 302.822,288.114 302.234 C 288.685 301.939,289.441 301.698,289.795 301.699 C 290.881 301.700,295.961 299.512,303.316 295.875 C 305.483 294.803,307.816 293.808,308.499 293.663 C 309.182 293.519,310.143 293.037,310.634 292.592 C 311.126 292.148,312.658 291.199,314.039 290.483 C 315.421 289.768,317.344 288.527,318.314 287.726 C 319.284 286.924,320.566 286.018,321.165 285.712 C 321.763 285.406,322.742 284.735,323.341 284.222 C 323.940 283.709,324.881 282.967,325.432 282.574 C 329.816 279.445,333.438 276.026,337.170 271.492 C 338.950 269.330,340.716 267.284,341.094 266.947 C 341.473 266.610,342.536 265.235,343.456 263.893 C 344.376 262.550,346.153 260.092,347.403 258.429 C 349.365 255.821,352.929 249.142,353.725 246.580 C 353.866 246.126,354.863 243.905,355.940 241.644 C 358.882 235.468,360.525 230.580,361.415 225.359 C 361.647 223.994,362.063 222.326,362.339 221.652 C 362.615 220.978,362.913 219.530,363.002 218.435 C 363.091 217.339,363.399 214.835,363.688 212.869 C 365.507 200.460,365.418 162.201,363.541 150.134 C 363.158 147.676,362.596 143.977,362.291 141.912 C 361.986 139.848,361.398 136.953,360.985 135.478 C 359.490 130.135,357.736 124.556,357.277 123.682 C 356.081 121.402,353.885 116.464,353.667 115.565 C 353.534 115.016,353.134 114.004,352.777 113.315 C 352.420 112.627,351.689 111.115,351.152 109.955 C 350.616 108.795,349.831 107.428,349.408 106.917 C 348.985 106.406,348.044 104.914,347.316 103.602 C 346.588 102.290,345.542 100.762,344.991 100.206 C 344.440 99.650,342.607 97.346,340.918 95.085 C 335.474 87.799,325.021 78.219,316.347 72.565 C 314.990 71.680,312.673 70.152,311.198 69.169 C 309.723 68.186,307.827 66.956,306.984 66.435 C 305.451 65.488,296.633 61.482,296.089 61.485 C 295.930 61.486,294.513 61.098,292.940 60.623 C 291.367 60.148,289.115 59.484,287.936 59.146 C 286.756 58.808,285.289 58.231,284.676 57.863 C 283.572 57.200,281.385 56.637,277.927 56.126 C 276.944 55.981,275.174 55.614,273.995 55.311 C 271.536 54.679,265.492 53.821,259.517 53.255 C 254.672 52.796,225.307 52.564,220.912 52.951 M240.866 55.810 C 246.728 55.796,250.777 55.954,251.176 56.213 C 251.405 56.362,251.649 56.314,251.718 56.107 C 251.805 55.844,253.223 55.843,256.430 56.104 C 258.953 56.309,261.638 56.377,262.397 56.256 C 263.156 56.134,264.789 56.206,266.026 56.415 C 267.263 56.624,270.045 56.981,272.207 57.207 C 278.144 57.829,281.346 58.485,283.349 59.492 C 284.345 59.992,286.626 60.880,288.418 61.466 C 290.209 62.051,292.153 62.777,292.737 63.079 C 293.320 63.381,294.192 63.628,294.673 63.628 C 295.155 63.628,296.466 64.111,297.587 64.701 C 298.708 65.290,299.861 65.773,300.149 65.773 C 300.436 65.773,301.586 66.192,302.704 66.704 C 303.822 67.216,305.334 67.875,306.063 68.167 C 306.793 68.460,307.483 68.993,307.597 69.351 C 307.711 69.710,308.300 70.176,308.906 70.387 C 310.292 70.870,313.943 73.319,317.426 76.101 C 318.901 77.279,320.831 78.678,321.716 79.211 C 322.601 79.743,324.271 81.115,325.428 82.261 C 326.585 83.406,327.792 84.428,328.109 84.531 C 328.427 84.633,329.046 85.247,329.485 85.894 C 329.924 86.541,330.916 87.466,331.690 87.950 C 332.463 88.433,333.380 89.308,333.729 89.892 C 334.077 90.477,334.887 91.442,335.530 92.037 C 336.645 93.070,337.457 94.099,339.349 96.872 C 339.819 97.560,341.282 99.249,342.600 100.626 C 344.659 102.775,346.381 105.413,346.381 106.419 C 346.381 106.580,346.944 107.548,347.632 108.570 C 348.320 109.592,348.883 110.590,348.883 110.788 C 348.883 111.310,350.325 114.086,351.031 114.924 C 351.363 115.317,352.005 116.845,352.459 118.320 C 352.912 119.794,353.500 121.255,353.764 121.565 C 354.029 121.876,354.245 122.265,354.245 122.431 C 354.245 122.596,354.474 122.986,354.753 123.296 C 355.478 124.101,356.667 127.465,357.857 132.082 C 358.060 132.869,358.381 134.023,358.572 134.648 C 358.763 135.272,358.981 136.273,359.057 136.872 C 359.133 137.470,359.283 138.246,359.390 138.596 C 359.497 138.945,359.853 141.162,360.179 143.521 C 360.506 145.880,360.898 148.695,361.049 149.777 C 361.201 150.858,361.524 152.386,361.768 153.172 C 362.011 153.959,362.264 156.050,362.329 157.819 C 362.395 159.589,362.637 162.726,362.869 164.790 C 363.971 174.620,363.141 205.415,361.598 211.975 C 361.298 213.253,361.048 214.781,361.044 215.371 C 361.036 216.486,360.676 218.307,359.108 225.160 C 358.596 227.398,358.177 229.504,358.177 229.841 C 358.177 230.177,357.842 231.402,357.433 232.563 C 357.024 233.724,356.363 235.788,355.964 237.150 C 355.565 238.512,354.958 239.880,354.614 240.189 C 354.269 240.498,353.310 242.359,352.481 244.325 C 351.652 246.291,350.584 248.412,350.107 249.038 C 349.631 249.664,349.238 250.307,349.235 250.468 C 349.200 252.434,342.166 263.064,338.785 266.261 C 337.851 267.144,337.087 268.053,337.087 268.283 C 337.087 268.512,336.202 269.627,335.121 270.762 C 334.039 271.896,333.155 272.940,333.155 273.081 C 333.155 273.603,329.332 277.195,327.256 278.624 C 326.077 279.436,324.790 280.368,324.397 280.696 C 318.691 285.449,316.102 287.236,311.832 289.365 C 309.246 290.654,306.934 291.946,306.694 292.235 C 306.454 292.525,305.871 292.761,305.399 292.761 C 304.927 292.761,303.539 293.384,302.315 294.146 C 301.091 294.907,299.607 295.644,299.017 295.782 C 298.427 295.921,297.703 296.230,297.408 296.470 C 296.002 297.613,286.835 300.450,281.680 301.337 C 280.206 301.591,278.643 302.017,278.207 302.284 C 277.772 302.552,276.857 302.770,276.173 302.770 C 275.490 302.770,274.831 302.931,274.710 303.128 C 274.588 303.324,273.927 303.485,273.240 303.485 C 272.553 303.485,270.914 303.713,269.597 303.992 C 265.263 304.908,262.959 305.272,259.339 305.612 C 254.009 306.112,251.693 306.476,249.866 307.100 C 248.264 307.648,227.470 307.887,223.950 307.399 C 222.574 307.208,220.402 306.970,219.124 306.870 C 217.846 306.770,215.916 306.422,214.835 306.098 C 213.753 305.773,212.386 305.483,211.796 305.452 C 208.424 305.278,204.909 304.774,204.264 304.372 C 203.857 304.118,202.570 303.794,201.405 303.653 C 200.239 303.511,198.963 303.224,198.570 303.015 C 197.891 302.654,195.100 302.129,189.701 301.349 C 187.029 300.963,183.186 299.817,181.233 298.825 C 180.545 298.476,179.258 298.001,178.374 297.771 C 177.489 297.541,176.202 296.977,175.514 296.517 C 173.683 295.294,169.453 293.119,168.905 293.119 C 168.645 293.119,167.792 292.596,167.010 291.957 C 166.228 291.318,165.052 290.474,164.397 290.080 C 163.742 289.687,162.862 289.124,162.441 288.829 C 159.876 287.033,157.338 285.446,156.544 285.141 C 156.039 284.948,155.362 284.330,155.040 283.768 C 154.717 283.206,154.065 282.598,153.590 282.418 C 153.115 282.237,151.884 281.314,150.855 280.365 C 149.826 279.417,148.624 278.400,148.184 278.105 C 147.364 277.556,141.403 271.428,137.887 267.520 C 136.805 266.319,135.356 264.453,134.666 263.374 C 133.976 262.295,132.652 260.383,131.725 259.124 C 130.798 257.866,129.632 256.034,129.135 255.052 C 128.637 254.071,128.023 253.106,127.771 252.907 C 127.519 252.709,126.881 251.501,126.353 250.223 C 125.826 248.945,125.257 247.730,125.089 247.523 C 124.920 247.316,124.301 245.731,123.713 244.001 C 123.125 242.271,122.394 240.476,122.090 240.011 C 121.786 239.547,121.537 238.973,121.537 238.736 C 121.537 238.499,121.299 238.041,121.007 237.719 C 120.716 237.398,119.980 235.455,119.371 233.402 C 118.762 231.349,117.860 229.138,117.366 228.489 C 116.316 227.109,115.600 223.544,115.341 218.409 C 115.246 216.503,114.925 214.442,114.612 213.711 C 113.395 210.876,112.660 185.800,113.157 164.096 C 113.254 159.881,113.409 156.355,113.503 156.262 C 113.596 156.168,113.673 155.244,113.673 154.209 C 113.673 153.173,113.823 151.931,114.006 151.449 C 114.329 150.599,115.004 145.491,115.304 141.624 C 115.696 136.570,116.521 132.587,117.419 131.408 C 117.915 130.759,118.625 129.357,118.997 128.295 C 120.054 125.278,122.186 120.488,122.948 119.418 C 123.328 118.885,123.834 117.655,124.073 116.686 C 124.311 115.717,125.246 113.661,126.149 112.118 C 127.053 110.574,128.519 107.888,129.407 106.148 C 131.036 102.956,132.715 100.804,133.579 100.804 C 133.837 100.804,134.029 100.684,134.006 100.536 C 133.866 99.650,134.187 98.955,135.299 97.741 C 135.987 96.990,136.550 96.225,136.550 96.041 C 136.550 95.396,141.912 89.549,144.893 86.942 C 145.855 86.101,147.388 84.521,148.299 83.431 C 150.066 81.318,153.990 78.284,154.956 78.284 C 155.276 78.284,156.374 77.511,157.394 76.565 C 159.536 74.580,162.846 72.140,165.488 70.599 C 166.499 70.009,167.639 69.267,168.021 68.951 C 168.403 68.635,169.498 68.283,170.454 68.170 C 171.472 68.049,172.844 67.542,173.764 66.947 C 174.628 66.387,176.542 65.543,178.016 65.071 C 180.554 64.258,182.561 63.395,184.987 62.073 C 185.576 61.751,186.461 61.486,186.953 61.484 C 188.375 61.477,190.614 60.753,191.777 59.924 C 194.386 58.063,197.337 57.429,205.183 57.042 C 206.658 56.969,208.105 56.822,208.400 56.715 C 209.745 56.229,220.078 55.737,221.066 56.112 C 221.876 56.420,222.207 56.388,222.688 55.953 C 223.469 55.246,226.922 55.221,227.914 55.916 C 228.388 56.248,228.820 56.312,229.155 56.100 C 229.438 55.921,230.554 55.761,231.635 55.743 C 232.717 55.725,234.325 55.592,235.210 55.446 C 236.095 55.300,237.112 55.324,237.470 55.499 C 237.828 55.674,239.356 55.814,240.866 55.810 M199.975 138.020 C 199.673 138.510,200.475 139.054,201.129 138.803 C 201.393 138.702,201.609 138.395,201.609 138.121 C 201.609 137.529,200.328 137.450,199.975 138.020 M219.124 156.568 C 219.124 157.265,219.503 157.500,219.934 157.070 C 220.220 156.783,219.845 155.853,219.443 155.853 C 219.268 155.853,219.124 156.175,219.124 156.568 M225.403 217.657 C 225.133 218.093,226.053 218.409,226.604 218.069 C 226.935 217.864,226.897 217.736,226.453 217.565 C 225.686 217.271,225.639 217.275,225.403 217.657 M245.392 217.697 C 244.710 217.936,244.713 217.956,245.480 218.199 C 245.918 218.339,246.540 218.306,246.861 218.126 C 247.652 217.683,246.439 217.329,245.392 217.697 M206.459 232.667 C 206.134 233.193,207.295 233.956,207.741 233.510 C 207.951 233.300,208.016 232.953,207.883 232.739 C 207.594 232.270,206.731 232.227,206.459 232.667 " stroke="none" fill="#d4f4e4" fill-rule="evenodd"></path></g></svg>